<?xml version="1.0" encoding="UTF-8"?>
<svg id="_レイヤー_2" data-name="レイヤー 2" xmlns="http://www.w3.org/2000/svg" xmlns:xlink="http://www.w3.org/1999/xlink" viewBox="0 0 100 60">
  <defs>
    <style>
      .cls-1 {
        fill: none;
      }

      .cls-2 {
        fill: #c4ae51;
      }

      .cls-3 {
        fill: #bfa847;
      }

      .cls-4 {
        clip-path: url(#clippath);
      }
    </style>
    <clipPath id="clippath">
      <rect class="cls-1" width="100" height="60"/>
    </clipPath>
  </defs>
  <g id="_レイヤー_1-2" data-name="レイヤー 1">
    <g class="cls-4">
      <g>
        <rect class="cls-2" y="0" width="100" height="60"/>
        <path class="cls-3" d="M100,65c-.88,0-1.76-.23-2.57-.71L-2.57,4.29C-4.94,2.87-5.71-.2-4.29-2.57-2.87-4.94.2-5.71,2.57-4.29l100,60c2.37,1.42,3.14,4.49,1.71,6.86-.94,1.56-2.59,2.43-4.29,2.43Z"/>
        <path class="cls-3" d="M0,65c-1.7,0-3.35-.87-4.29-2.43-1.42-2.37-.65-5.44,1.71-6.86L97.43-4.29c2.37-1.42,5.44-.65,6.86,1.72,1.42,2.37.65,5.44-1.71,6.86L2.57,64.29c-.8.48-1.69.71-2.57.71Z"/>
        <rect class="cls-1" y="0" width="100" height="60"/>
      </g>
    </g>
  </g>
</svg>