<?xml version="1.0" encoding="UTF-8"?>
<svg id="_レイヤー_2" data-name="レイヤー 2" xmlns="http://www.w3.org/2000/svg" viewBox="0 0 134 106.36">
  <defs>
    <style>
      .cls-1 {
        stroke-width: 5.67px;
      }

      .cls-1, .cls-2 {
        fill: #fff;
        stroke: #fff;
        stroke-linecap: round;
        stroke-linejoin: round;
      }

      .cls-2 {
        stroke-width: 14.17px;
      }

      .cls-3 {
        fill: #301f26;
      }

      .cls-4 {
        fill: #e7211d;
      }

      .cls-5 {
        fill: #7c7a7b;
      }

      .cls-6 {
        fill: #841a1f;
      }

      .cls-7 {
        fill: #f7c962;
      }

      .cls-8 {
        fill: #e1ad39;
      }
    </style>
  </defs>
  <g id="_デザイン" data-name="デザイン">
    <g>
      <g id="image">
        <path class="cls-2" d="M112.84,56.35l-.66.67c-5.43,5.45-15.71,9.48-17.37,10.11-.23-4.69-1.39-9.11-3.29-13.02,2.06-3.69,4.21-8.2,6.52-13.73,6.87-16.47,11.09-24.85,13.42-28.97.52-.93.5-2.06-.05-2.96-.55-.89-1.48-1.39-2.52-1.34-6.96.32-19.29,1.8-23.58,8.19-.19.28-.53.43-.88.42h0c-4.93-.2-9.35,2.6-12.79,8.11-.45.72-.56,1.61-.3,2.43.26.8.84,1.45,1.61,1.77,3.04,1.27,8.14,4.64,8.14,12.97,0,.35-.03.69-.04,1.03-4.07-2.65-8.79-4.18-13.82-4.18-2.01,0-3.98.25-5.87.71l-.08-.08s-.09.09-.14.14c-2.8.71-5.44,1.9-7.85,3.49-.02-.37-.05-.74-.05-1.11,0-8.42,5.07-11.75,8.1-12.98.78-.32,1.37-.96,1.63-1.77.26-.82.15-1.71-.3-2.44-3.44-5.49-7.86-8.27-12.78-8.08-.36.01-.69-.14-.88-.42-4.29-6.39-16.62-7.87-23.58-8.19-1.03-.04-1.97.46-2.52,1.34-.56.9-.58,2.04-.05,2.96,2.33,4.13,6.54,12.5,13.42,28.97,2.33,5.59,4.51,10.13,6.59,13.84-1.17,2.44-2.05,5.07-2.6,7.84-.16.39-.25.79-.25,1.2h.03c-.21,1.3-.36,2.62-.42,3.97-2.51-1.21-11.47-5.77-16.18-11.37l-.62-.73-11.53,23.42-.27.23s.05.06.1.11l-4.05,8.22.24.34c.09.13,2.24,3.14,5.55,6.12,4.21,3.79,8.2,5.71,11.9,5.71.25,0,.51,0,.76-.03l.25-.02.17-.2c4-4.55,11.28-22.14,13.8-28.4,1,4.86,6.89,8.02,27.4,8.16.44,0,.87,0,1.29,0,13.49,0,21.29-1.49,24.5-4.68,1.36-1.35,1.76-2.87,1.86-4.28,1.62,4.54,5.99,16.5,9.66,23.71l.18.51s.03-.01.08-.03c.92,1.76,1.78,3.21,2.54,4.13l.16.2.25.03c.47.06.94.09,1.42.09,3.54,0,7.44-1.61,11.62-4.79,3.49-2.66,5.82-5.42,5.92-5.53l.26-.31-14.08-31.5Z"/>
      </g>
      <g>
        <g id="image-2" data-name="image">
          <path class="cls-1" d="M112.95,57.85l-.66.67c-5.43,5.45-15.71,9.48-17.37,10.11-.23-4.69-1.39-9.11-3.29-13.02,2.06-3.69,4.21-8.2,6.52-13.73,6.87-16.47,11.09-24.85,13.42-28.97.52-.93.5-2.06-.05-2.96-.55-.89-1.48-1.39-2.52-1.34-6.96.32-19.29,1.8-23.58,8.19-.19.28-.53.43-.88.42h0c-4.93-.2-9.35,2.6-12.79,8.11-.45.72-.56,1.61-.3,2.43.26.8.84,1.45,1.61,1.77,3.04,1.27,8.14,4.64,8.14,12.97,0,.35-.03.69-.04,1.03-4.07-2.65-8.79-4.18-13.82-4.18-2.01,0-3.98.25-5.87.71l-.08-.08s-.09.09-.14.14c-2.8.71-5.44,1.9-7.85,3.49-.02-.37-.05-.74-.05-1.11,0-8.42,5.07-11.75,8.1-12.98.78-.32,1.37-.96,1.63-1.77.26-.82.15-1.71-.3-2.44-3.44-5.49-7.86-8.27-12.78-8.08-.36.01-.69-.14-.88-.42-4.29-6.39-16.62-7.87-23.58-8.19-1.03-.04-1.97.46-2.52,1.34-.56.9-.58,2.04-.05,2.96,2.33,4.13,6.54,12.5,13.42,28.97,2.33,5.59,4.51,10.13,6.59,13.84-1.17,2.44-2.05,5.07-2.6,7.84-.16.39-.25.79-.25,1.2h.03c-.21,1.3-.36,2.62-.42,3.97-2.51-1.21-11.47-5.77-16.18-11.37l-.62-.73-11.53,23.42-.27.23s.05.06.1.11l-4.05,8.22.24.34c.09.13,2.24,3.14,5.55,6.12,4.21,3.79,8.2,5.71,11.9,5.71.25,0,.51,0,.76-.03l.25-.02.17-.2c4-4.55,11.28-22.14,13.8-28.4,1,4.86,6.89,8.02,27.4,8.16.44,0,.87,0,1.29,0,13.49,0,21.29-1.49,24.5-4.68,1.36-1.35,1.76-2.87,1.86-4.28,1.62,4.54,5.99,16.5,9.66,23.71l.18.51s.03-.01.08-.03c.92,1.76,1.78,3.21,2.54,4.13l.16.2.25.03c.47.06.94.09,1.42.09,3.54,0,7.44-1.61,11.62-4.79,3.49-2.66,5.82-5.42,5.92-5.53l.26-.31-14.08-31.5Z"/>
          <g>
            <path class="cls-3" d="M68.76,80.05c-.42,0-.84,0-1.27,0-22.52-.15-27.13-4.07-27.13-9.91,0-5.48,13.98-8.44,27.13-8.44,7.18,0,13.92.81,18.98,2.28,5.41,1.57,8.27,3.7,8.27,6.16,0,1.66-.22,3.57-1.87,5.24-3.16,3.19-10.83,4.68-24.11,4.68Z"/>
            <g>
              <path class="cls-3" d="M94.1,70.21c0-16.79-12.08-30.4-26.99-30.4s-26.99,13.61-26.99,30.4"/>
              <path class="cls-5" d="M94.74,70.21h-1.29c0-16.41-11.82-29.76-26.34-29.76s-26.34,13.35-26.34,29.76h-1.29c0-17.12,12.4-31.05,27.63-31.05s27.63,13.93,27.63,31.05Z"/>
            </g>
            <g>
              <g>
                <path class="cls-3" d="M112.52,58.8l13.53,30.27s-9.38,11.15-18.39,10.01c-4.49-5.47-12.98-29.93-12.98-29.93,0,0,11.78-4.26,17.84-10.35Z"/>
                <path class="cls-5" d="M109,99.82c-.48,0-.95-.03-1.42-.09l-.25-.03-.16-.2c-4.51-5.49-12.74-29.13-13.09-30.13l-.21-.6.6-.22c.12-.04,11.72-4.29,17.6-10.2l.66-.67,14.08,31.5-.26.31c-.1.12-2.43,2.87-5.92,5.53-4.18,3.19-8.08,4.79-11.62,4.79ZM108,98.48c7.66.76,15.74-7.79,17.29-9.52l-12.98-29.06c-5.47,5.07-14.4,8.71-16.81,9.63,1.31,3.72,8.48,23.75,12.5,28.94Z"/>
              </g>
              <path class="cls-5" d="M98.43,78.97l-.42-1.22s4.82-1.67,9.65-3.89c4.74-2.18,8.55-6.1,8.59-6.14l.93.9c-.16.17-4,4.12-8.98,6.41-4.89,2.25-9.72,3.92-9.77,3.94Z"/>
              <path class="cls-5" d="M104.54,95.39l-.42-1.22s4.98-1.72,9.96-4.02c4.9-2.26,8.83-6.3,8.87-6.34l.93.9c-.17.17-4.13,4.26-9.26,6.62-5.05,2.33-10.03,4.05-10.08,4.07Z"/>
            </g>
            <g>
              <path class="cls-3" d="M22.86,57.64l-15.13,30.73s8.66,12.19,17.65,11.54c4.76-5.43,14.56-30.41,14.56-30.41,0,0-11.43-5.15-17.08-11.86Z"/>
              <path class="cls-5" d="M24.66,100.6c-3.69,0-7.69-1.92-11.9-5.71-3.3-2.98-5.46-5.99-5.55-6.12l-.24-.34,15.74-31.98.62.73c5.49,6.52,16.74,11.63,16.85,11.69l.58.26-.24.61c-.4,1.02-9.9,25.16-14.68,30.61l-.17.2-.25.02c-.25.02-.5.03-.76.03ZM8.49,88.3c1.41,1.86,8.69,10.96,16.19,10.96.13,0,.26,0,.4,0,4.27-5.17,12.52-25.61,14.03-29.41-2.33-1.11-10.97-5.44-16.1-11.04l-14.52,29.5Z"/>
            </g>
            <path class="cls-5" d="M35.9,78.53s-4.78-1.96-9.53-4.49c-4.83-2.57-8.44-6.74-8.59-6.92l.98-.84s3.61,4.17,8.22,6.62c4.69,2.5,9.37,4.42,9.41,4.44l-.49,1.2Z"/>
            <path class="cls-5" d="M28.84,94.57s-4.93-2.03-9.83-4.64c-4.98-2.65-8.71-6.96-8.86-7.14l.98-.84s3.73,4.31,8.49,6.84c4.85,2.58,9.67,4.57,9.72,4.59l-.49,1.2Z"/>
            <path class="cls-5" d="M68.34,80.13c-.43,0-.86,0-1.29,0-22.88-.15-27.57-4.07-27.57-9.91,0-5.48,14.21-8.44,27.57-8.44,7.3,0,14.15.81,19.29,2.28,5.5,1.57,8.4,3.7,8.4,6.16,0,1.66-.23,3.57-1.9,5.24-3.21,3.19-11.01,4.68-24.5,4.68ZM67.05,63.07c-15.72,0-26.28,3.69-26.28,7.14,0,2.95,0,8.44,26.28,8.62,13.73.11,21.87-1.31,24.88-4.3,1.26-1.25,1.52-2.63,1.52-4.32,0-3.45-10.61-7.14-26.4-7.14Z"/>
            <path class="cls-5" d="M94.19,64.58h-1.29c0-3.51-10.39-7.28-25.85-7.28s-25.85,3.76-25.85,7.28h-1.29c0-5.36,13.8-8.57,27.14-8.57s27.14,3.2,27.14,8.57Z"/>
            <g>
              <path class="cls-5" d="M51.12,58.4l-1.24-.36c.13-.43,3.16-10.54,11.28-18.25l.89.94c-7.86,7.46-10.9,17.57-10.93,17.67Z"/>
              <path class="cls-5" d="M82.98,58.63c-.03-.1-3.07-10.21-10.93-17.67l.89-.94c8.12,7.71,11.16,17.82,11.28,18.25l-1.24.36Z"/>
            </g>
            <circle class="cls-5" cx="54.96" cy="53.71" r="1.09"/>
            <circle class="cls-5" cx="78.82" cy="53.73" r="1.09"/>
            <g>
              <path class="cls-7" d="M84.28,17.93c-5.6-.23-9.52,3.73-11.99,7.68-.65,1.03-.22,2.42.89,2.89,3.15,1.32,8.7,4.9,8.7,13.8,0,10.18-6.76,19.93-14.83,20.11-8.06-.18-14.83-9.93-14.83-20.11,0-9,5.5-12.53,8.66-13.82,1.12-.46,1.56-1.85.91-2.89-2.47-3.94-6.38-7.89-11.97-7.66-.66.03-1.29-.26-1.67-.82-4.14-6.16-16.64-7.51-22.87-7.79-1.52-.07-2.5,1.61-1.74,2.96,2.19,3.88,6.44,12.22,13.46,29.07,11.2,26.83,18.29,29.45,30.05,29.52,11.76.06,18.85-2.68,30.05-29.52,7.03-16.84,11.28-25.19,13.46-29.07.76-1.35-.23-3.03-1.74-2.96-6.23.28-18.73,1.63-22.87,7.79-.37.56-1.01.84-1.67.82Z"/>
              <path class="cls-8" d="M67.53,71.78c-.16,0-.32,0-.48,0-11.43-.06-19.21-2.12-30.88-30.07-6.87-16.47-11.09-24.85-13.42-28.97-.52-.93-.5-2.06.05-2.96.55-.89,1.49-1.38,2.52-1.34,6.97.32,19.29,1.8,23.58,8.19.19.28.52.43.88.42,4.92-.19,9.33,2.59,12.78,8.08.46.73.57,1.62.3,2.44-.26.81-.86,1.46-1.63,1.77-3.02,1.23-8.1,4.56-8.1,12.98,0,9.89,6.65,19.05,13.94,19.21,7.26-.16,13.9-9.32,13.9-19.21,0-8.33-5.1-11.7-8.14-12.97-.77-.32-1.35-.96-1.61-1.77-.26-.82-.15-1.71.3-2.43,3.45-5.51,7.86-8.3,12.79-8.11h0c.35,0,.69-.14.88-.42,4.29-6.39,16.62-7.87,23.58-8.19,1.04-.05,1.97.46,2.52,1.34.56.9.58,2.04.05,2.96-2.33,4.13-6.54,12.5-13.42,28.97-11.58,27.74-19.28,30.07-30.41,30.07ZM25.19,10.23c-.49,0-.75.34-.84.49-.21.35-.22.77-.02,1.13,2.35,4.17,6.6,12.61,13.51,29.17,11.46,27.47,18.57,28.9,29.22,28.96.12,0,.25,0,.37,0,11.38,0,18.02-3.05,28.84-28.96,6.91-16.55,11.16-25,13.51-29.17.2-.36.2-.78-.02-1.13-.09-.15-.37-.51-.89-.48-5.33.24-18.17,1.45-22.16,7.39-.54.8-1.45,1.26-2.45,1.22h0c-5.35-.22-9.04,3.83-11.19,7.26-.17.27-.21.61-.11.92.09.3.31.53.58.65,3.46,1.44,9.25,5.27,9.25,14.64,0,11.01-7.34,20.83-15.71,21.02-8.41-.19-15.75-10.01-15.75-21.02,0-9.48,5.78-13.25,9.22-14.66.28-.11.5-.35.59-.65.1-.31.06-.65-.11-.92-2.15-3.42-5.83-7.46-11.17-7.24-1,.04-1.91-.41-2.45-1.22-3.99-5.94-16.83-7.15-22.16-7.39-.02,0-.03,0-.05,0Z"/>
            </g>
            <g>
              <polyline class="cls-7" points="44.64 56.48 51.76 57.71 54.18 51.78"/>
              <polygon class="cls-8" points="52.32 58.72 44.48 57.37 44.79 55.59 51.2 56.69 53.34 51.44 55.02 52.12 52.32 58.72"/>
            </g>
            <g>
              <g>
                <polygon class="cls-4" points="55.15 56.43 67.43 71.03 61.29 56.43 55.15 56.43"/>
                <path class="cls-6" d="M67.43,71.6c-.16,0-.32-.07-.43-.2l-12.27-14.6c-.14-.17-.17-.4-.08-.6.09-.2.29-.33.51-.33h6.14c.23,0,.43.14.52.35l6.14,14.6c.11.26.01.55-.23.7-.09.06-.19.08-.29.08ZM56.36,57l9.1,10.83-4.55-10.83h-4.55Z"/>
              </g>
              <g>
                <polygon class="cls-4" points="55.15 56.43 59.34 51.03 64.68 51.03 61.29 56.43 55.15 56.43"/>
                <path class="cls-6" d="M61.29,57h-6.14c-.22,0-.41-.12-.51-.32-.09-.19-.07-.42.06-.59l4.19-5.4c.11-.14.27-.22.45-.22h5.34c.21,0,.39.11.49.29.1.18.09.4-.02.57l-3.39,5.4c-.1.16-.28.26-.48.26ZM56.3,55.87h4.67l2.69-4.27h-4.05l-3.31,4.27Z"/>
              </g>
              <g>
                <polygon class="cls-4" points="79.7 56.43 75.51 51.03 70.17 51.03 73.56 56.43 79.7 56.43"/>
                <path class="cls-6" d="M79.7,57h-6.14c-.19,0-.37-.1-.48-.26l-3.39-5.4c-.11-.17-.12-.39-.02-.57.1-.18.29-.29.49-.29h5.34c.17,0,.34.08.45.22l4.19,5.4c.13.17.16.4.06.59-.09.19-.29.32-.51.32ZM73.88,55.87h4.67l-3.31-4.27h-4.05l2.69,4.27Z"/>
              </g>
              <g>
                <polygon class="cls-4" points="79.7 56.43 67.43 71.03 73.56 56.43 79.7 56.43"/>
                <path class="cls-6" d="M67.43,71.6c-.1,0-.2-.03-.29-.08-.24-.15-.33-.44-.23-.7l6.14-14.6c.09-.21.29-.35.52-.35h6.14c.22,0,.42.13.51.33.09.2.06.43-.08.6l-12.27,14.6c-.11.13-.27.2-.43.2ZM73.94,57l-4.55,10.83,9.1-10.83h-4.55Z"/>
              </g>
              <g>
                <polygon class="cls-4" points="64.68 51.03 61.29 56.43 73.56 56.43 70.17 51.03 64.68 51.03"/>
                <path class="cls-6" d="M73.56,57h-12.27c-.21,0-.39-.11-.49-.29-.1-.18-.09-.4.02-.57l3.39-5.4c.1-.16.28-.26.48-.26h5.49c.19,0,.37.1.48.26l3.39,5.4c.11.17.12.39.02.57-.1.18-.29.29-.49.29ZM62.31,55.87h10.23l-2.69-4.27h-4.86l-2.69,4.27Z"/>
              </g>
              <g>
                <polygon class="cls-4" points="67.43 71.03 73.56 56.43 61.29 56.43 67.43 71.03"/>
                <path class="cls-6" d="M67.43,71.6c-.23,0-.43-.14-.52-.35l-6.14-14.6c-.07-.17-.05-.37.05-.53s.28-.25.47-.25h12.27c.19,0,.36.09.47.25.1.16.12.36.05.53l-6.14,14.6c-.09.21-.29.35-.52.35ZM62.14,57l5.29,12.58,5.29-12.58h-10.58Z"/>
              </g>
            </g>
          </g>
        </g>
        <g id="image-3" data-name="image">
          <path class="cls-5" d="M94.74,70.21h-1.29c0-16.41-11.82-29.76-26.34-29.76s-26.34,13.35-26.34,29.76h-1.29c0-17.12,12.4-31.05,27.63-31.05s27.63,13.93,27.63,31.05Z"/>
          <g>
            <g>
              <path class="cls-3" d="M112.52,58.8l13.53,30.27s-9.38,11.15-18.39,10.01c-4.49-5.47-12.98-29.93-12.98-29.93,0,0,11.78-4.26,17.84-10.35Z"/>
              <path class="cls-5" d="M109,99.82c-.48,0-.95-.03-1.42-.09l-.25-.03-.16-.2c-4.51-5.49-12.74-29.13-13.09-30.13l-.21-.6.6-.22c.12-.04,11.72-4.29,17.6-10.2l.66-.67,14.08,31.5-.26.31c-.1.12-2.43,2.87-5.92,5.53-4.18,3.19-8.08,4.79-11.62,4.79ZM108,98.48c7.66.76,15.74-7.79,17.29-9.52l-12.98-29.06c-5.47,5.07-14.4,8.71-16.81,9.63,1.31,3.72,8.48,23.75,12.5,28.94Z"/>
            </g>
            <path class="cls-5" d="M98.43,78.97l-.42-1.22s4.82-1.67,9.65-3.89c4.74-2.18,8.55-6.1,8.59-6.14l.93.9c-.16.17-4,4.12-8.98,6.41-4.89,2.25-9.72,3.92-9.77,3.94Z"/>
            <path class="cls-5" d="M104.54,95.39l-.42-1.22s4.98-1.72,9.96-4.02c4.9-2.26,8.83-6.3,8.87-6.34l.93.9c-.17.17-4.13,4.26-9.26,6.62-5.05,2.33-10.03,4.05-10.08,4.07Z"/>
          </g>
          <g>
            <path class="cls-3" d="M22.86,57.64l-15.13,30.73s8.66,12.19,17.65,11.54c4.76-5.43,14.56-30.41,14.56-30.41,0,0-11.43-5.15-17.08-11.86Z"/>
            <path class="cls-5" d="M24.66,100.6c-3.69,0-7.69-1.92-11.9-5.71-3.3-2.98-5.46-5.99-5.55-6.12l-.24-.34,15.74-31.98.62.73c5.49,6.52,16.74,11.63,16.85,11.69l.58.26-.24.61c-.4,1.02-9.9,25.16-14.68,30.61l-.17.2-.25.02c-.25.02-.5.03-.76.03ZM8.49,88.3c1.41,1.86,8.69,10.96,16.19,10.96.13,0,.26,0,.4,0,4.27-5.17,12.52-25.61,14.03-29.41-2.33-1.11-10.97-5.44-16.1-11.04l-14.52,29.5Z"/>
          </g>
          <path class="cls-5" d="M35.9,78.53s-4.78-1.96-9.53-4.49c-4.83-2.57-8.44-6.74-8.59-6.92l.98-.84s3.61,4.17,8.22,6.62c4.69,2.5,9.37,4.42,9.41,4.44l-.49,1.2Z"/>
          <path class="cls-5" d="M28.84,94.57s-4.93-2.03-9.83-4.64c-4.98-2.65-8.71-6.96-8.86-7.14l.98-.84s3.73,4.31,8.49,6.84c4.85,2.58,9.67,4.57,9.72,4.59l-.49,1.2Z"/>
          <path class="cls-5" d="M68.34,80.13c-.43,0-.86,0-1.29,0-22.88-.15-27.57-4.07-27.57-9.91,0-5.48,14.21-8.44,27.57-8.44,7.3,0,14.15.81,19.29,2.28,5.5,1.57,8.4,3.7,8.4,6.16,0,1.66-.23,3.57-1.9,5.24-3.21,3.19-11.01,4.68-24.5,4.68ZM67.05,63.07c-15.72,0-26.28,3.69-26.28,7.14,0,2.95,0,8.44,26.28,8.62,13.73.11,21.87-1.31,24.88-4.3,1.26-1.25,1.52-2.63,1.52-4.32,0-3.45-10.61-7.14-26.4-7.14Z"/>
          <path class="cls-5" d="M94.19,64.58h-1.29c0-3.51-10.39-7.28-25.85-7.28s-25.85,3.76-25.85,7.28h-1.29c0-5.36,13.8-8.57,27.14-8.57s27.14,3.2,27.14,8.57Z"/>
          <path class="cls-5" d="M82.98,58.63c-.03-.1-3.07-10.21-10.93-17.67l.89-.94c8.12,7.71,11.16,17.82,11.28,18.25l-1.24.36Z"/>
          <circle class="cls-5" cx="54.96" cy="53.71" r="1.09"/>
          <circle class="cls-5" cx="78.82" cy="53.73" r="1.09"/>
          <g>
            <path class="cls-7" d="M84.28,17.93c-5.6-.23-9.52,3.73-11.99,7.68-.65,1.03-.22,2.42.89,2.89,3.15,1.32,8.7,4.9,8.7,13.8,0,10.18-6.76,19.93-14.83,20.11-8.06-.18-14.83-9.93-14.83-20.11,0-9,5.5-12.53,8.66-13.82,1.12-.46,1.56-1.85.91-2.89-2.47-3.94-6.38-7.89-11.97-7.66-.66.03-1.29-.26-1.67-.82-4.14-6.16-16.64-7.51-22.87-7.79-1.52-.07-2.5,1.61-1.74,2.96,2.19,3.88,6.44,12.22,13.46,29.07,11.2,26.83,18.29,29.45,30.05,29.52,11.76.06,18.85-2.68,30.05-29.52,7.03-16.84,11.28-25.19,13.46-29.07.76-1.35-.23-3.03-1.74-2.96-6.23.28-18.73,1.63-22.87,7.79-.37.56-1.01.84-1.67.82Z"/>
            <path class="cls-8" d="M67.53,71.78c-.16,0-.32,0-.48,0-11.43-.06-19.21-2.12-30.88-30.07-6.87-16.47-11.09-24.85-13.42-28.97-.52-.93-.5-2.06.05-2.96.55-.89,1.49-1.38,2.52-1.34,6.97.32,19.29,1.8,23.58,8.19.19.28.52.43.88.42,4.92-.19,9.33,2.59,12.78,8.08.46.73.57,1.62.3,2.44-.26.81-.86,1.46-1.63,1.77-3.02,1.23-8.1,4.56-8.1,12.98,0,9.89,6.65,19.05,13.94,19.21,7.26-.16,13.9-9.32,13.9-19.21,0-8.33-5.1-11.7-8.14-12.97-.77-.32-1.35-.96-1.61-1.77-.26-.82-.15-1.71.3-2.43,3.45-5.51,7.86-8.3,12.79-8.11h0c.35,0,.69-.14.88-.42,4.29-6.39,16.62-7.87,23.58-8.19,1.04-.05,1.97.46,2.52,1.34.56.9.58,2.04.05,2.96-2.33,4.13-6.54,12.5-13.42,28.97-11.58,27.74-19.28,30.07-30.41,30.07ZM25.19,10.23c-.49,0-.75.34-.84.49-.21.35-.22.77-.02,1.13,2.35,4.17,6.6,12.61,13.51,29.17,11.46,27.47,18.57,28.9,29.22,28.96.12,0,.25,0,.37,0,11.38,0,18.02-3.05,28.84-28.96,6.91-16.55,11.16-25,13.51-29.17.2-.36.2-.78-.02-1.13-.09-.15-.37-.51-.89-.48-5.33.24-18.17,1.45-22.16,7.39-.54.8-1.45,1.26-2.45,1.22h0c-5.35-.22-9.04,3.83-11.19,7.26-.17.27-.21.61-.11.92.09.3.31.53.58.65,3.46,1.44,9.25,5.27,9.25,14.64,0,11.01-7.34,20.83-15.71,21.02-8.41-.19-15.75-10.01-15.75-21.02,0-9.48,5.78-13.25,9.22-14.66.28-.11.5-.35.59-.65.1-.31.06-.65-.11-.92-2.15-3.42-5.83-7.46-11.17-7.24-1,.04-1.91-.41-2.45-1.22-3.99-5.94-16.83-7.15-22.16-7.39-.02,0-.03,0-.05,0Z"/>
          </g>
          <g>
            <g>
              <polygon class="cls-4" points="55.15 56.43 67.43 71.03 61.29 56.43 55.15 56.43"/>
              <path class="cls-6" d="M67.43,71.6c-.16,0-.32-.07-.43-.2l-12.27-14.6c-.14-.17-.17-.4-.08-.6.09-.2.29-.33.51-.33h6.14c.23,0,.43.14.52.35l6.14,14.6c.11.26.01.55-.23.7-.09.06-.19.08-.29.08ZM56.36,57l9.1,10.83-4.55-10.83h-4.55Z"/>
            </g>
            <g>
              <polygon class="cls-4" points="55.15 56.43 59.34 51.03 64.68 51.03 61.29 56.43 55.15 56.43"/>
              <path class="cls-6" d="M61.29,57h-6.14c-.22,0-.41-.12-.51-.32-.09-.19-.07-.42.06-.59l4.19-5.4c.11-.14.27-.22.45-.22h5.34c.21,0,.39.11.49.29.1.18.09.4-.02.57l-3.39,5.4c-.1.16-.28.26-.48.26ZM56.3,55.87h4.67l2.69-4.27h-4.05l-3.31,4.27Z"/>
            </g>
            <g>
              <polygon class="cls-4" points="79.7 56.43 75.51 51.03 70.17 51.03 73.56 56.43 79.7 56.43"/>
              <path class="cls-6" d="M79.7,57h-6.14c-.19,0-.37-.1-.48-.26l-3.39-5.4c-.11-.17-.12-.39-.02-.57.1-.18.29-.29.49-.29h5.34c.17,0,.34.08.45.22l4.19,5.4c.13.17.16.4.06.59-.09.19-.29.32-.51.32ZM73.88,55.87h4.67l-3.31-4.27h-4.05l2.69,4.27Z"/>
            </g>
            <g>
              <polygon class="cls-4" points="79.7 56.43 67.43 71.03 73.56 56.43 79.7 56.43"/>
              <path class="cls-6" d="M67.43,71.6c-.1,0-.2-.03-.29-.08-.24-.15-.33-.44-.23-.7l6.14-14.6c.09-.21.29-.35.52-.35h6.14c.22,0,.42.13.51.33.09.2.06.43-.08.6l-12.27,14.6c-.11.13-.27.2-.43.2ZM73.94,57l-4.55,10.83,9.1-10.83h-4.55Z"/>
            </g>
            <g>
              <polygon class="cls-4" points="64.68 51.03 61.29 56.43 73.56 56.43 70.17 51.03 64.68 51.03"/>
              <path class="cls-6" d="M73.56,57h-12.27c-.21,0-.39-.11-.49-.29-.1-.18-.09-.4.02-.57l3.39-5.4c.1-.16.28-.26.48-.26h5.49c.19,0,.37.1.48.26l3.39,5.4c.11.17.12.39.02.57-.1.18-.29.29-.49.29ZM62.31,55.87h10.23l-2.69-4.27h-4.86l-2.69,4.27Z"/>
            </g>
            <g>
              <polygon class="cls-4" points="67.43 71.03 73.56 56.43 61.29 56.43 67.43 71.03"/>
              <path class="cls-6" d="M67.43,71.6c-.23,0-.43-.14-.52-.35l-6.14-14.6c-.07-.17-.05-.37.05-.53s.28-.25.47-.25h12.27c.19,0,.36.09.47.25.1.16.12.36.05.53l-6.14,14.6c-.09.21-.29.35-.52.35ZM62.14,57l5.29,12.58,5.29-12.58h-10.58Z"/>
            </g>
          </g>
        </g>
      </g>
    </g>
  </g>
</svg>