<?xml version="1.0" encoding="UTF-8"?>
<svg id="_レイヤー_2" data-name="レイヤー 2" xmlns="http://www.w3.org/2000/svg" viewBox="0 0 556.74 86.08">
  <defs>
    <style>
      .cls-1 {
        fill: none;
      }

      .cls-2 {
        fill: #111;
      }
    </style>
  </defs>
  <g id="main">
    <g>
      <path class="cls-1" d="M31.67,37.96l-.14,1.42c.87-.08,2.94-.69,3.3-1.03-.01-.02-.03-.23-.04-.37-.02-.21-.04-.48,0-.74l-3.12.73Z"/>
      <path class="cls-1" d="M151.42,37.96c.58-.42,1.03-.76,1.46-.79.38-.03.8.2,1.33.48.53.29,1.23.67,1.71.63l2.75-11.27c-3.08-.48-6.08.28-8.39,1.01-.98.31-1.89.75-2.77,1.18-1.87.91-3.81,1.85-6.3,1.4-.15-.03-1.22-.23-1.83-.71l-.15.52c-.42,1.44-.35,2.85-.08,4.29.09-.25.28-.51.65-.77l.15-.07c.79-.21,1.94-.7,3.27-1.26,3.74-1.58,8.41-3.55,11.31-2.26.99.44,1.7,1.23,2.09,2.35.22.62.2,1.17-.07,1.65-.58,1.06-2.14,1.42-3.65,1.78-.64.15-1.25.29-1.69.47-1.25.51-2.43,1.18-3.58,1.82-1.48.83-3.02,1.69-4.69,2.23l-.18.06s0,.02,0,.02c1.92-.36,6.09-1.45,7.47-2,.35-.14.8-.47,1.19-.76Z"/>
      <path class="cls-1" d="M144.4,37.49c-.36.09-.73.17-1.09.18-.91-.03-3.05-.71-3.89-1.73.13.5.26,1.01.41,1.53.32,1.17.66,2.38.82,3.59.09-.07.19-.18.33-.36.17-.2.36-.44.62-.59.15-.09.44-.26.72-.19l2.18-2.46s-.08.02-.12.03Z"/>
      <path class="cls-1" d="M273.16,53.81c.08-.04.17-.08.27-.11,1.26-.32,3.07-.83,4.19-1.63,2.83-2,5.6-6.03,5.03-10.16-.29-2.1-1.26-3.41-2.8-3.79-2.12-.52-5.13.87-6.78,3.1.15,1.78,0,3.57-.14,5.3-.21,2.52-.41,4.91.24,7.27Z"/>
      <path class="cls-1" d="M205.72,30.8s.18.12.59.08c.6-.06,2.23-1.17,3.68-2.2l-2.52.96-.46-.88c3.15-2.14,12.72-8.66,9.83-13.51-1.22-2.05-6.59-1.89-9.13-1.23-1.66.43-5.62,2.74-6.37,4.08-.19.34-.26.7-.34,1.09-.12.61-.25,1.3-.93,1.77l-1.02,8.44c.79,0,1.55.1,2.29.2,1.34.18,2.61.36,3.93-.14l1.31-.49-.7,1.21c-.23.39-.2.6-.18.64Z"/>
      <path class="cls-1" d="M139.04,29.52c-.12-.24-.12-.5,0-.73.25-.51.94-.9,1.8-1.31l-2.31.72-.48-.86c.64-.55,1.29-1,1.93-1.43,1.2-.82,2.33-1.6,3.18-2.96.76-1.22,2.14-4.67,1.92-5.27-.46-1.05-1.86-.55-3.79.27-.7.3-1.37.58-1.96.71.21,2.98-1.2,5.5-2.57,7.94-.76,1.36-1.55,2.77-2.03,4.23.58.46,1.03,1.08,1.44,1.64.25.34.48.65.7.9l.08.08s0,0,0,0c.04-.18.1-.5.14-.76.2-1.16.45-2.61,1.51-2.9l.52-.14s-.06-.09-.09-.14Z"/>
      <path class="cls-1" d="M17.92,22.32c.19-.32.16-.87.13-1.4-.31.19-.62.38-.93.56-1.99,1.19-3.88,2.32-4.7,4.29.57-.35,1.26-.75,1.97-1.15,1.31-.75,3.28-1.88,3.53-2.3Z"/>
      <path class="cls-1" d="M43.28,7.58c-1.48.68-3,1.38-4.77,1.15l.25,2.85c.07-.03.15-.07.22-.1,1.47-.66,3.06-1.36,4.61-1.36,1.22,0,2.43.44,3.54,1.69.08.09.15.18.22.27v-5.55c-1.42-.16-2.71.44-4.07,1.06Z"/>
      <path class="cls-1" d="M54.92,38.61s-.02-.09-.04-.15c.14,3,.29,6.07.52,8.87-.02-.4-.03-.79-.05-1.18-.1-2.48-.21-5.04-.43-7.54Z"/>
      <path class="cls-1" d="M12.43,21.98h-1.1s0,1.94,0,1.94c.41-.6.88-1.42,1.1-1.94Z"/>
      <path class="cls-1" d="M47.36,17.88v-3.44c-.68.62-1.91.92-2.95,1.17-.45.11-.87.21-1.12.31-1.7.68-3.02,1.6-3.94,2.75.74-.11,1.47-.28,2.18-.45,1.83-.42,3.71-.86,5.83-.33Z"/>
      <path class="cls-1" d="M449.23,57.24l-3.54-8.57-4.43,1.31-.02.87c.27-.15.64-.42.91-.61,1.06-.75,2.16-1.54,2.92-.88l.44.37-3.08,2.74,1.22.4-.82.57c-1.73,1.2-1.63,1.79-1.42,3.07.08.46.17.99.18,1.63,0,.47.03.98.06,1.52.06,1.25.12,2.65.04,4.02l7.53-6.45Z"/>
      <path class="cls-1" d="M429.61,56.87c.27-.03.55-.06.73-.13l.14-.06c3.14-1.39,4.03-1.84,4.28-1.99.05-.3.04-1.36-.02-1.94-.38.14-.77.33-1.18.53-.57.28-1.15.57-1.77.72-.38.1-.89.08-1.38.07-.18,0-.43,0-.6,0,0,0,0,0,0,.01-.07.32-.16.75-.4,1.08-.31.42-.62.84-.94,1.26-.72.96-1.47,1.96-2.08,3.01.49.27.89.53,1.22.85-.22-1.1-.06-2.22.84-3.06.29-.27.71-.31,1.15-.36Z"/>
      <path class="cls-1" d="M443.53,43.51c.24-.12.5-.25.75-.37-.02-1.93-.64-4.01-1.76-5.91-.47-.1-1.73.1-2.53.35,1.17.59,2.67,1.66,3.11,2.86.21.58.16,1.16-.16,1.66-.24.37-.77.5-1.78.73-.48.11-1.43.32-1.68.53.01.01.03.03.05.05,1.24,1.39,2.18,1.02,4.01.1Z"/>
      <path class="cls-1" d="M507.74,53.07c5.35-7.21,8.09-21.88,3.74-30.7-1.07-2.16-2.25-3.34-3.61-3.61-.2-.04-.41-.06-.62-.06-1.49,0-3.29.97-5.58,3.01-4.76,4.22-8.55,13.53-8.82,21.64-.12,3.69.42,8.78,3.69,12.11,1.5,1.52,3.09,2.23,4.73,2.12,2.14-.15,4.44-1.75,6.49-4.51Z"/>
      <path class="cls-1" d="M485.09,43.28l.13.6c.05-4.33.73-8.81,2.06-13.53-1.55,4.11-2.07,9.01-2.2,12.93Z"/>
      <path class="cls-1" d="M434.79,62.12l.24-2.38c-.65.42-1.68,1.36-2.09,1.91l1.85.47Z"/>
      <path class="cls-2" d="M472.28,67.44c-.12-.22-.23-.4-.25-.56-.22-1.6-.14-3.15-.07-4.8.02-.38.04-.76.05-1.14l.03-.85-.76.39v-2.39s-1.47.36-1.47.36v-2.29s-.97-.18-.97-.18l-.28.71c.14-1.68.16-3.31-.63-5.12l-.11-.26-.28-.04c-.23-.03-.44.03-.62.17-.39.31-.46.9-.52,1.38-.01.09-.02.18-.03.25-.05.26-.11.75-.19,1.37-.87,6.81-1.74,8.43-2.35,8.52-2.8-1.63-4.64-3.21-5.89-5.05.42-.4.77-.89,1.11-1.37.31-.43.6-.84.89-1.1.39-.35.89-.63,1.37-.9.88-.5,1.8-1.02,2.01-1.99.17-.76-.13-1.62-.92-2.73-.68-.95-4.61-3.53-6.06-3.14-.82.22-1.32.55-1.54,1.01-.28.58-.02,1.18.16,1.61.07.16.19.43.18.49-.1.27-.82,1.31-1.31,1.88l-1.46-4.69c1.62-.45,3.22-.44,4.9-.45,1.46,0,2.97,0,4.47-.32l.17-.04.11-.13c.59-.7.82-1.49.66-2.28-.22-1.08-1.2-2.17-2.63-2.91-.4-.21-4.31-1.64-4.85-1.65h0c-.34,0-.5.28-.64.53-.15.27-.38.69-.74.88-.27.14-1.91.57-2.71.72l-.26-4.05-2.69-1.88s.08,0,.13,0c.65-.04,1.32-.11,2-.17,1.77-.17,3.61-.34,5.25-.19.36.03.87.15,1.41.28,1.01.24,2.21.52,3.28.47-.44.15-.8.35-1,.63-.19.27-.22.59-.08.89l.06.1c.56.75,1.22,1.4,1.87,2.04,1.67,1.66,3.11,3.08,2.29,5.56l.94.34.55-1.37c.05.03.11.06.17.09,1.07.58,3.3,1.78,5.05.72,1.38-.84,1.78-3.29,1.13-4.71-1.38-3.03-4.84-4.56-7.65-4.72-.02,0-.99,0-2.02.14.46-.22.84-.56,1.1-1.1.41-.85.4-1.71-.02-2.51-1.2-2.28-5.33-3.39-6.68-3.6-1.41-.22-3.27.45-5.06,1.09-1.21.44-2.46.89-3.44,1-.64.08-.9-.06-.95-.16-.07-.13,0-.52.47-1.05.61-.68,3.04-1.14,4.65-1.44.84-.16,1.56-.29,2.07-.44l.27-.08.07-.27c.39-1.54-.07-2.9-1.3-3.82-1.52-1.15-3.92-1.4-5.75-.66l-.12-.61c1.13-.08,2.18-.43,3.21-.77.77-.26,1.56-.52,2.36-.66.38-.06.86-.08,1.36-.09,1.3-.03,2.63-.06,3.21-.99.38-.61.31-1.46-.21-2.59-.64-1.38-1.86-1.71-2.94-1.99-.53-.14-1.04-.28-1.47-.53,1.33-.51,2.65-1.31,3.94-2.09.65-.4,1.3-.79,1.93-1.13l.14-.08.07-.15c1.11-2.36.21-3.44-.94-4.8l-.1-.12c-2.37-2.83-5.17-5-9.63-1.76l-.36.26.21.39c.19.34.43.62.67.89.38.42.7.79.73,1.3.08,1.3-3.38,6.82-6.59,9.55-.85.73-1.63,1.2-2.25,1.38.33-.81.21-1.57.1-2.27-.09-.53-.17-1.03-.08-1.59.19-1.31,1.15-2.47,2.07-3.59.24-.29.47-.57.69-.85l.29-.38-.37-.31c-.48-.4-1.19.03-2.47.81-.87.53-2.18,1.34-2.75,1.29-.27-.03-.59-.58-.86-1.07-.5-.87-1.17-2.08-2.52-1.91-1.49.13-2.4,3.84-2.46,4.33-.31,2.22.86,4.09,1.92,5.47l1.97,1.57c-.36.1-.79.21-1.2.31-1.94.47-3.96.96-3.77,2.23.06.42,1.51,2.26,1.81,2.45,2.14,1.35,5.05.4,6.62-.11.11-.04.22-.07.33-.11,0,.04,0,.07,0,.11.03.53.07,1.08-.2,1.29-.95.78-4.56,1.65-5.88,1.53l-.45-.04-.09.44c-.19.97-.02,1.8.52,2.45.82.99,2.29,1.32,3.45,1.42l-1.05,1.56,4.03-1.34v.54c-1.03.35-2.06.76-3.06,1.16-2.75,1.09-5.59,2.22-8.54,2.24h-.2s-.15.14-.15.14c-.31.31-.41.74-.26,1.21.48,1.49,3.57,3.46,4.47,3.6.98.16,1.84-.29,2.68-.72.2-.1.39-.2.58-.29l-2.14,2.78-3.85,3.48.48.85,1.06-.32-.3,1.8,1.09-1.05c.97-.94,2.26-1.53,2.76-1.27.24.13.33.56.25,1.2-.71.21-1.45.51-2.17.81-1.91.78-3.88,1.6-5.51.67l-.6-.34-.4,1.96c-.12-.04-.25-.09-.37-.13-1.05-.38-2.13-.78-3.48-.25l-.11.04-.08.08c-.79.85-2.35,1.63-3.85,2.38-1.53.77-2.98,1.49-3.73,2.33-.44.5-.55,1.14-.28,1.76.36.83,1.32,1.49,2.19,1.51.64,0,1.52-.51,2.84-1.32.32-.2.74-.45,1.08-.64-.06.27-.11.55-.16.83-.38,1.99-.77,4.04-2.45,4.86-.4-.12-1.2-1.58-1.51-2.14-.27-.48-.48-.87-.67-1.1-.28-.35-.69-.74-1.11-1.15-.96-.93-2.28-2.21-2.04-3.08.21-.65,3.68-3.39,5.12-4.3.79-.5,2.65-1.31,4.44-2.09,2.89-1.26,4.2-1.85,4.57-2.28.69-.77.65-1.5.5-1.98-.44-1.37-2.27-2.27-3.33-2.51-2.52-.58-3.8.3-5.15,1.22-.72.49-1.46,1-2.47,1.35-.25.09-.54.14-.83.19,3.18-2.92,6.92-4.72,11.12-6.59l.19-.08.08-.19c.39-.97.27-1.9-.34-2.69-1.07-1.39-3.49-2.02-5.12-1.83-.95.12-2.15.88-3.55,1.77-2.03,1.29-4.32,2.75-6,2.27l-.56-.16-.08.57c-.15,1.13.12,2.08.79,2.81,1.04,1.12,2.73,1.39,3.93,1.43l-1.34,2.15.67.56c-.16.02-.32.05-.49.07-1.38.17-3.11.39-3.2,2.4-.1,2.04,2.08,2.7,3.25,3.05.04.01.08.02.12.04-.56.61-1.31,1.22-2.08,1.86-2.12,1.75-4.52,3.74-4.2,6.42.22,1.87,4.66,11.02,6.27,11.96.37.22,3.34,1.13,4,.67l.19-.13.38-4.14c2.74-.02,5.8-1,9.32-3.01l.16-.09c.17.26.35.49.53.7.5.58,1.29,1,1.99,1.38.47.25.91.49,1.11.7.35.35.71.98,1.1,1.64,1.02,1.76,2.42,4.16,4.81,3.06,2.49-1.14,3.28-3.65,3.48-6.27l1.72-.17-.79.79.96.16c.77.13,1.39-.25,1.93-.58.35-.21.69-.42.98-.43.2-.03.39.11.6.24.24.14.48.29.79.29h0c.34,0,.61-.16.84-.32.02.06.04.12.08.18.25.37.74.29.98.26.64-.1,1.26-.5,1.87-.89.34-.22.78-.5,1.06-.59,2.74,3.98,10.54,11.22,15.31,11.29.03,0,.06,0,.1,0,1.5,0,2.79-.52,3.63-1.48.88-1,1.23-2.41,1.01-3.98-.08-.54-.3-.94-.48-1.26ZM427.62,60.28c-.33-.31-.73-.58-1.22-.85.61-1.06,1.36-2.05,2.08-3.01.31-.42.63-.84.94-1.26.23-.33.33-.76.4-1.08,0,0,0,0,0-.01.17,0,.42,0,.6,0,.49.01,1,.02,1.38-.07.61-.16,1.2-.44,1.77-.72.4-.2.79-.39,1.18-.53.07.58.07,1.64.02,1.94-.25.15-1.14.6-4.28,1.99l-.14.06c-.18.08-.46.11-.73.13-.44.04-.86.09-1.15.36-.9.83-1.06,1.96-.84,3.06ZM435.03,59.74l-.24,2.38-1.85-.47c.41-.56,1.44-1.5,2.09-1.91ZM441.15,42.83c1.01-.23,1.54-.36,1.78-.73.32-.5.38-1.07.16-1.66-.44-1.2-1.94-2.27-3.11-2.86.8-.25,2.06-.45,2.53-.35,1.13,1.9,1.75,3.98,1.76,5.91-.26.12-.51.25-.75.37-1.83.91-2.77,1.29-4.01-.1-.02-.02-.03-.04-.05-.05.25-.2,1.21-.42,1.68-.53ZM441.67,59.67c-.03-.54-.05-1.05-.06-1.52-.01-.64-.1-1.16-.18-1.63-.22-1.28-.31-1.86,1.42-3.07l.82-.57-1.22-.4,3.08-2.74-.44-.37c-.77-.65-1.86.13-2.92.88-.27.19-.64.46-.91.61l.02-.87,4.43-1.31,3.54,8.57-7.53,6.45c.09-1.38.02-2.78-.04-4.02Z"/>
      <path class="cls-2" d="M230.43,43.45c-.86.73-1.69,1.54-2.49,2.31-1.93,1.87-3.92,3.8-6.44,4.78-3.38-1.84-5.12-5.39-6.8-8.83-.46-.94-.92-1.87-1.4-2.76-.26-.48-.56-.87-.85-1.25-.47-.62-.86-1.12-.95-1.82.76-.16,1.71-.65,2.7-1.17.75-.39,2-1.04,2.67-1.16-.07.26-.06.53.16.74.45.43,1.14.02,2-.5.21-.13.39-.24.49-.28,3.1-1.08,4.46-2.12,6.3-4.83,3.88-5.72,3.63-11.56-.74-17.37-5.44-7.22-15.4-9.37-26.66-5.79l-.71-.75-1.43.35-1.66-5.14-.97,3.35c-.07-.09-.18-.17-.33-.22-1.07-.29-1.99.13-2.79.51-.73.34-1.41.66-2.21.51l-.82-.15.49,1.54-.7.7-1.68-.54,1.2,3.6c-.75.19-1,.72-1.17,1.06-.16.33-.2.37-.37.38h-.18s-.13.14-.13.14c-.15.14-.22.33-.2.53.05.39.41.59.87.85.26.14.64.36.74.51.14.21.17.46.2.74.04.28.07.57.23.82.17.28.47.45.82.65.53.31,1.08.63,1.21,1.31.22,1.14-.09,2.86-.41,4.69-.41,2.33-.84,4.74-.3,6.52l.09.3.31.05c.33.05.55-.06.68-.16.12-.09.2-.21.25-.34-.07.49-.15.98-.22,1.46-.36,2.4-.74,4.88-.77,7.33l-.02,1.23.6-.61-.12,1.21-1.04-1.05-1.26,8.18c-.13-.27-.38-.51-.81-.64l-.48-.14-.15.48c-.06.21-.13.58-.21,1.08-.12.72-.47,2.78-.79,3.3-.09-.33-.25-.76-.66-.99-.19-.11-.51-.2-.95-.06l-.4.13.05.41c.16,1.23.31,3.39.18,4.32-.02.12-.06.16-.31.27-.21.1-.56.26-.61.67-.03.27-.12.82-.21,1.33-.16.99-.18,1.12-.17,1.24.08.88,1.74,5.31,2.21,6.15.96,1.74,1.43,2.01,2.3,2.41.31.14.66.3,1.13.6.08.07.29.37.42.55.35.51.56.81.9.85h0s2.32-.12,2.6-.25c.3-.14.52-.45.78-.82.69-.96,1.04-1.24,1.64-.85l1.01.66-.25-1.18c-.12-.6.39-1.61.81-2.42.35-.68.62-1.22.64-1.65.02-.59-.07-1.42-.16-2.29-.1-.92-.2-1.87-.16-2.48.11-1.57.36-3.28.61-4.93.19-1.28.39-2.61.52-3.86l.02-.21-.36-.41.63-.13.7-5.46c.05.02.1.03.16.05.31.1.66.21,1.05.21.43.05,1.05-.09,1.69-.18,1.13-.16,3.02-.42,3.42.03.34.39,1.47,2.58,1.9,3.4l.13.26c.73,1.4,1.5,3.18,2.31,5.07,2.57,5.94,5.76,13.33,10.48,15.57.82.39,4.11,1.44,5.02,1.47,1.44.05,2.75-.58,3.82-1.79,1.44-1.62,2.24-4.19,1.94-6.24-.07-.45-.28-.83-.47-1.17-.05-.1-.11-.2-.16-.3.22-.06.48-.18.62-.45.08-.16.14-.42,0-.75-.13-.36-.37-.53-.54-.6-.18-.08-.36-.09-.54-.07,0-.67.05-1.7.07-1.88.06-.27.28-.63.49-.98.31-.51.6-.99.57-1.44-.01-.24-.16-.4-.44-.5-.17-.06-.45-.16-.19-1.13.25-.93.79-1.76,1.36-2.64.55-.84,1.12-1.72,1.42-2.72l.5-1.63-1.3,1.11ZM205.29,29.45c-1.32.5-2.59.33-3.93.14-.74-.1-1.51-.2-2.29-.2l1.02-8.44c.68-.46.81-1.15.93-1.77.07-.39.14-.75.34-1.09.75-1.33,4.71-3.65,6.37-4.08,2.54-.66,7.91-.82,9.13,1.23,2.89,4.85-6.69,11.37-9.83,13.51l.46.88,2.52-.96c-1.45,1.04-3.08,2.14-3.68,2.2-.41.04-.57-.04-.59-.08-.03-.04-.05-.24.18-.64l.7-1.21-1.31.49Z"/>
      <path class="cls-2" d="M159.67,44.95c.75-.26,1.44-.5,2.13-.44h.12s.12-.04.12-.04c1.82-.78,3.27-3.93,4.55-6.72.74-1.62,1.45-3.14,2.06-3.84.41-.46.92-.75,1.41-1.04,1.5-.86,2.47-1.7,1.23-4.62-1.15-2.71-7.68-7.43-10.61-7.1-1,.11-1.52.52-1.94.85-.22.18-.4.32-.62.39-1.17.4-2.86.55-4.49.7-.29.03-.58.05-.86.08,1.01-.42,2-.96,2.24-2.14.56-2.82-1.37-5.16-3.66-6.12.03-.04.08-.07.17-.14,1-.68,8.43-2.07,10.57-2.34.34-.04.72.03,1.09.1.37.07.75.14,1.1.11.71-.07,1.38-.48,2.03-.88.61-.37,1.24-.75,1.79-.77l.86-.03-.45-.73c-.37-.6-.34-.9-.29-1.32.05-.45.12-1.01-.33-1.85-.33-.6-2.37-3.12-2.99-3.46-1.3-.72-6.16-2.14-7.66-2.03-1.51.11-2.18.68-2.83,1.24-.36.31-.7.6-1.2.84-3.86,1.83-18.03,4.93-21.88,4.5-.39-.04-.84-.18-1.31-.32-1.02-.31-2.17-.65-3.05-.08-.6.39-.96,1.12-1.11,2.24-.25,1.92,2.89,5.7,3.75,6.54.39.38,1.16.8,1.73,1.11.16.09.29.16.38.21.1.29-.11.6-.73,1.1-.21.17-.35.29-.4.49-2.68,11.52-13.37,32.82-21.18,42.19-.52.62-1.11,1.17-1.73,1.76-.81.76-1.66,1.55-2.32,2.5l-.47.68.82.11c1.01.13,1.83-.58,2.5-1.15.27-.23.54-.46.72-.54.18-.08.39-.05.62-.01.26.04.55.08.83-.04,1.71-.78,3.23-1.54,4.4-2.78l.69.7,5.18-4.85.11-.16c1.06-2.32,2.45-4.54,3.79-6.67,1.07-1.7,2.17-3.45,3.11-5.26.61-1.17,1.16-2.55,1.69-3.89.73-1.83,1.49-3.73,2.4-5.13.02-.03.03-.05.04-.08,1.04,4.06,4.35,11.63,8.67,11.22.91-.09,1.23-.44,1.54-.85.15-.21.27-.37.6-.51.95-.41,2.18-.59,2.49-.39,1.02,3.77,1.19,7.98.53,12.53-1.4.25-5.51-.71-7.46-1.97-.72-.47-.74-.72-.74-.73-.02-.64.55-1.05,1.49-1.64.7-.45,1.43-.91,1.76-1.62l.48-1.02-4.13,1.25c-.06-.12-.12-.24-.17-.36-.95-1.96-1.85-3.81-4.61-4.25l-.86-.14.32.81c.76,1.95-1.94,4.1-3.73,5.53-1.05.84-1.57,1.26-1.72,1.69-.14.39.1,5.17.21,5.47.61,1.66,3.08,3.78,5.12,3.21.42-.12,2.8-2.37,2.81-2.39.25-.32.58-.99,1-1.83.43-.87,1.2-2.43,1.63-2.86l2.29,1.81c-.12-.05-.23-.09-.33-.13-1.07-.43-1.56-.61-1.93-.37l-.26.22v.46s.12.15.12.15c.73.8,2.08,1.62,3.39,2.42,1.11.67,2.25,1.37,2.73,1.9.45.49.72,1.23,1,2.02.61,1.66,1.36,3.73,4.29,3.73.05,0,.11,0,.16,0,2.24-.06,2.7-1.31,3.11-2.41.13-.35.26-.71.45-1.03,2.51-4.31,2.02-7.38,1.5-10.64-.3-1.88-.61-3.83-.38-6.17.05-.5.22-.97.38-1.43.22-.61.44-1.24.37-1.91-.08-.82-.53-1.33-.89-1.75-.22-.25-.4-.46-.5-.71,1.76-.86,2.13-.48,2.73.13.32.32.68.69,1.26.96,1.05.49,2.12.12,3.16-.24ZM141.61,40.11c-.26.16-.45.39-.62.59-.14.17-.24.29-.33.36-.17-1.21-.5-2.42-.82-3.59-.14-.51-.28-1.02-.41-1.53.83,1.02,2.98,1.7,3.89,1.73.36,0,.73-.08,1.09-.18.04-.01.08-.02.12-.03l-2.18,2.46c-.28-.06-.57.1-.72.19ZM142.76,40.7l.18-.06c1.67-.54,3.21-1.4,4.69-2.23,1.15-.64,2.34-1.31,3.58-1.82.44-.18,1.05-.32,1.69-.47,1.51-.35,3.07-.72,3.65-1.78.26-.48.28-1.04.07-1.65-.4-1.12-1.1-1.91-2.09-2.35-2.9-1.29-7.56.68-11.31,2.26-1.33.56-2.48,1.05-3.27,1.26l-.15.07c-.37.25-.56.52-.65.77-.27-1.43-.35-2.85.08-4.29l.15-.52c.61.47,1.68.68,1.83.71,2.49.45,4.43-.49,6.3-1.4.88-.43,1.79-.87,2.77-1.18,2.31-.73,5.31-1.48,8.39-1.01l-2.75,11.27c-.47.05-1.18-.34-1.71-.63-.53-.29-.95-.51-1.33-.48-.43.03-.89.37-1.46.79-.39.29-.84.61-1.19.76-1.37.55-5.55,1.65-7.47,2,0,0,0-.02,0-.02ZM138.61,29.8c-1.05.29-1.3,1.74-1.51,2.9-.04.25-.1.58-.14.76,0,0,0,0,0,0l-.08-.08c-.23-.24-.46-.56-.7-.9-.41-.56-.86-1.18-1.44-1.64.48-1.46,1.27-2.87,2.03-4.23,1.36-2.44,2.77-4.96,2.57-7.94.59-.13,1.26-.42,1.96-.71,1.93-.82,3.33-1.31,3.79-.27.22.6-1.16,4.05-1.92,5.27-.85,1.35-1.98,2.13-3.18,2.96-.63.43-1.29.88-1.93,1.43l.48.86,2.31-.72c-.86.41-1.55.8-1.8,1.31-.12.24-.11.5,0,.73.02.05.05.09.09.14l-.52.14Z"/>
      <path class="cls-2" d="M405.73,42.46l.33-.11-.07-.97c-.6-.11-1.02-.55-1.51-1.07-.27-.28-.54-.58-.87-.83-2.96-2.26-6.33-3.92-9.58-5.53-2.25-1.11-4.58-2.26-6.68-3.57-2.84-1.78-5.92-5.09-8.63-8.01-1.02-1.09-1.98-2.13-2.88-3.04-.32-.32-1.24-1.17-2.31-2.14-1.44-1.31-3.74-3.41-4.4-4.15.28-.03.63-.09.89-.38,1.34-1.51.69-3.7-.55-5.2-.39-.47-3.26-2.94-3.71-3.25h0c-1.41-.97-4.6-.94-6.44.07-1.25.68-1.49,1.57-1.47,2.19.02.52.26.98.49,1.42.25.47.46.88.38,1.28-.25,1.19-2.55,5.32-3.66,7.31l-.48.86c-.5.9-.96,1.67-1.4,2.4-.62,1.03-1.2,2-1.81,3.21-.44.89-2.54,4.38-3,4.88-.26.28-.66.32-.92.34-.19.01-.37.03-.53.17-.28.25-.14.58-.09.69.07.17.2.46.06.83-.44,1.14-2.64,4.09-3.55,4.53l-.39-.83-2.81,1.07.32,2.42s0,0-.01,0c-.03-.04-.11-.19-.17-.33l-.54-1.14-.45.96c-.16.35-.54.38-1.15.4-.36,0-.71.02-.98.18-.35.21-1.44,2.57-1.35,3.1.08.52.85,1.96,1.72,2.41-1,1.04-1.97,2.12-2.9,3.16-2.29,2.55-4.46,4.95-7.11,7.05l.54.84c1.07-.54,2.24-.83,3.37-1.11,1.34-.33,2.72-.68,3.97-1.44l.07.31.29.08c1.06.28,1.64-.35,2.06-.81.17-.19.34-.37.5-.46,2.7-1.48,3.74-2.58,5.05-3.98.63-.68,1.35-1.45,2.38-2.37.37-.33.79-.58,1.23-.85.71-.42,1.51-.89,2.15-1.79.47-.65.54-1.22.53-1.58.06-.02.13-.04.18-.05.53-.15,1.33-.38,1.52-1.15.09-.36-.03-.7-.12-.98-.08-.24-.14-.41-.1-.48.08-.11.52-.5.87-.82.58-.52,1.05-.94,1.37-1.29l2.6,2.16,2.5.99-3.17,3.48.56.8c1.34-.55,2.66-1.19,3.93-1.8,1.46-.71,2.97-1.43,4.5-2.03,1.72-.67,3.64-1.24,5.51-1.79,1.24-.37,2.47-.74,3.63-1.13l.18-.06.09-.17c.8-1.44.87-2.89.22-4.19-1.07-2.11-3.79-3.33-6.01-3.61-1.91-.24-2.77.32-3.75.98-.49.33-1,.66-1.73.96-1.53.63-4.68,1.62-5.96,1.75l7.96-13.13c.59.04,2.3,1.57,7.05,8.22.48.67.84,1.18,1.02,1.39,3.68,4.52,7.84,9.65,12.13,14.31.23.25.43.48.62.69,1.02,1.15,1.7,1.91,3.8,2.85,1.8.81,2.51.68,3.33.54.43-.08.87-.15,1.57-.12.64.03,1.32.13,2.04.23,1.44.21,2.93.42,4.3.15.48-.09.9-.4,1.34-.73.53-.39,1.07-.79,1.63-.73l1.41.15-1.25-1.24h3.66s-1.38-1.38-1.38-1.38Z"/>
      <path class="cls-2" d="M328.93,27.26c-.13-.54-2.86-4.55-3.24-4.88-.33-.29-2.08-1.17-2.1-1.18-1.61-.79-2.25-.5-2.97,0-.3.21-.59.41-1.11.47-.29.04-.7-.07-1.02-.16-.43-.11-.73-.19-1.01-.05-.15.08-.24.18-1.2,1.38-.4.5-.85,1.07-1.01,1.24-.09.09-.33.14-.47.17-.15.03-.28.06-.4.15l-.22.2v.24c0,.31.23.48.45.65.23.18.54.42.6.74.17.93.09,1.49-.15,2.39-.72,2.7-5.5,12.44-7.07,14.68l-.12.17c-.13.19-.28.41-.4.54-.05-.08-.11-.2-.19-.38-1.19-2.73-2.42-6.54-3.38-10.45-.14-.58-.16-1.04-.18-1.48-.04-1.05-.08-1.96-1.72-3.29-.77-.63-4.36-2.56-5.4-2.68-1.62-.18-2.46.45-3.21,1.01-.62.46-1.16.86-2.14.87h-.64s.16.62.16.62c.23.91-.21,2-.59,2.95-.21.53-.42,1.04-.48,1.47-.05.34,0,.7.07,1.05.09.52.17,1.01-.08,1.44l-.56.98c-.44-.54-.91-1.04-1.45-1.48-3.47-2.83-8.55-3.6-13.69-2.09-.12-2.32,1.62-12.86,2.28-14.38.23-.54.57-.99.93-1.47.58-.77,1.17-1.56,1.3-2.73.35-3.2-1.67-5.77-3.42-7.36-.84-.76-7.35-3.42-8.39-3.42h0c-.38,0-.67.18-.91.33-.09.05-.25.15-.3.15h0s-.09-.02-.25-.25l-.09-.12-.14-.05c-.42-.16-.76-.12-1,.09-.42.36-.28.99-.17,1.5.03.13.06.24.06.3-.12,1.96.15,3.03.57,4.64.08.29.16.61.24.95v12.65l.72-.53-.02,1.68c-.1,7.23-.2,14.71-1.1,21.93-.14,1.17-.55,2.1-.98,3.09-.24.54-.48,1.1-.69,1.71-.39,1.15-.45,2.54-.5,3.76v.08s-2.1.39-2.1.39l1.29.67c.63.33.62,1.22.55,2.18-.03.45-.05.75.06.99.39.85,1.75,1.79,2.96,2.61.55.37,1.17.8,1.28.94.02.05.01.2,0,.29,0,.22-.02.44.1.64.15.24.74.32,1.45.32,1.23,0,2.78-.23,2.8-.24.72-.27,1.27-.96,1.75-1.57.26-.32.58-.73.75-.8.99-.42,2.41-.61,3.78-.8,1.28-.17,2.59-.36,3.67-.72.71-.24,5.89-3.56,6.51-4.1,3.06-2.7,4.91-7.27,4.82-11.92-.06-3-.93-5.65-2.49-7.67l1.04-.48c.68-.32,2.37-.95,3.37.06,1.08,2.09,2,4.45,2.88,6.74.99,2.56,2.02,5.21,3.29,7.52.53.96,1.24,2.25,2.51,2.83v.31c-.45.8-.89,1.6-1.33,2.41-2.14,3.88-4.35,7.89-6.81,11.6-5.39,8.12-8.09,9.02-17.04,11.99l-4.89,2.14.24.96,3.51-.29-.53,1.03,1.93-.67.1.2c.44.85,1.81.67,3.02.51.19-.02.41-.05.58-.08v.18c-.22.03-.45.03-.7.04-.94.03-2.1.07-2.56,1.32l-.31.84,4.3-.84c.5.94,1.45.69,2.11.52.36-.09.72-.19,1.08-.18.63.02,1.45.37,2.11.65.55.23.94.4,1.25.41.03,0,.06,0,.09,0,3.21,0,8.64-4.26,9.17-6.67.66-2.98,2.56-5.76,4.39-8.46.65-.96,1.33-1.95,1.93-2.93.93-1.51,1.8-3.09,2.63-4.63.62-1.13,1.23-2.26,1.88-3.37.43-.28,1.16-.42,1.87-.57,1.06-.22,2.16-.44,2.7-1.16,1.18-1.56,1.33-3.68.42-6l5.98-10.36,1.3.45-.39-1.96.73.13.66-1.06c1.11-1.81,2.38-3.86,4.14-4.91.1-.06.33-.08.52-.09.29-.02.6-.05.85-.22,1.17-.8,1.81-5.98,1.56-7.01ZM273.07,41.23c1.65-2.23,4.66-3.62,6.78-3.1,1.54.37,2.51,1.68,2.8,3.79.58,4.12-2.2,8.16-5.03,10.16-1.13.8-2.93,1.31-4.19,1.63-.1.03-.19.06-.27.11-.65-2.36-.45-4.75-.24-7.27.15-1.73.3-3.52.14-5.3Z"/>
      <path class="cls-2" d="M50.11,1.15c-2.23-.77-3.19-.02-4.12.69-.41.32-.84.65-1.42.89-.61.25-1.3.44-2.04.65-.91.25-1.84.51-2.68.9-.44.21-.92.54-1.44.9-.76.53-1.79,1.24-2.27,1.12-.19-.05-.42-.25-.66-.47-.65-.57-1.64-1.42-3.24-.49l-.21.12-.03.24c-.16,1.27.09,2.33.33,3.35.21.88.41,1.72.37,2.71-.04,1.15-.29,2.3-.53,3.41-.61,2.8-1.25,5.7,1.55,8.51.09.09.18.17.27.26-1.45.03-2.53,1.04-3.89,2.32l-1.4,1.3,2.89.24c-.47,1.27-3.92,5.29-4.68,5.6-.07.02-.14.03-.22.04-.03-.38-.09-.73-.14-1.05-.17-.98-.28-1.69.41-2.53l.65-.79-1.02-.03c-.57,0-.99.21-1.36.42-.33.19-.59.33-.97.31-.34-.02-.97-.33-1.53-.61-1.11-.55-2.26-1.12-2.98-.51-.62.53-.59,1.67.09,3.81.3.93.82,1.49,1.27,1.98.25.27.49.52.67.82-2.57.07-4.34.96-4.51,2.3-.15,1.2,1.03,2.24,3.19,2.87l-1.44,1.44,5.21-1.42-.02.87s-.09.05-.14.07c-.06.03-.13.06-.19.09-.62.33-4.84,1.61-5.73,1.77-.4.07-.89.06-1.4.04-1.19-.03-2.67-.08-3.3,1.19-.47.94-.37,1.96.28,2.86,1,1.38,3.22,2.3,4.94,2.04.94-.14,1.77-.64,2.5-1.08.43-.26.83-.5,1.2-.64-.73,2.79-4.85,6.92-7.48,8.74-.22.15-.51.27-.82.4-.6.25-1.21.5-1.51,1.08l-.29.57.62.15c.29.07.58.1.86.1,1.13,0,2.18-.5,3.05-.92.49-.24.96-.46,1.36-.56.36-.09.83-.1,1.34-.11.82-.01,1.74-.03,2.65-.37,3.34-1.23,5.97-4.34,7.38-8.58l.26.15c1.06.6,4.31,3.66,4.68,4.6l-1.29.87.31.42c.54.74,1.19.6,1.63.51.32-.07.52-.1.75,0,.22.1.4.42.57.72.16.28.32.56.56.76h0c1.76,1.43,3.16,1.81,4.16,1.81.53,0,.95-.11,1.25-.23,1.04-.42,1.72-1.39,1.87-2.64.21-1.75-.65-4.39-3.69-6.57-2.61-1.88-7.71-2.53-10.31-2.62h-.16c.06-.29.12-.57.17-.86,1.03-.36,5.56-1.07,6.38-1.07h0c.53,0,1.18.13,1.87.26.95.19,1.93.38,2.75.27.87-.12,1.5-.57,2.06-.97.42-.3.82-.59,1.28-.72l1.02-.28-.87-.61c-.3-.21-.65-.89-.91-1.39-.33-.65-.54-1.02-.82-1.21-.69-.47-2.1-.78-3.47-1.08-.9-.2-1.75-.38-2.23-.58-.47-.19-.8-.46-1.13-.8l2.93-.68.11-.2c.54-1,.5-2.02-.12-2.87-.7-.96-2.06-1.57-3.41-1.59.36-.24,1.02-.58,2.16-1.07.41-.18.5-.22.59-.29h0c.71-.58,1.05-1.25,1.01-1.99-.07-1.37-1.47-2.49-2.29-3.04-.05-.04-.1-.06-.15-.1.61-.09,1.18-.33,1.75-.57.53-.22,1.09-.45,1.7-.59,1.05-.24,5.46-.91,6.78-.91.01,0,.02,0,.03,0,.03,1.32,0,2.66-.02,3.96-.03,1.52-.06,3.09,0,4.63.09,2.54.33,5.26.57,7.88.4,4.47.81,9.1.54,13.29-.28,4.38-.97,6.14-1.36,6.26-2.38.71-7.78-1.17-11.01-2.29-.62-.21-1.17-.41-1.64-.56l-.46.87,3.19,2.49,3.1,1.42c-.16-.03-.35-.08-.46-.1-.57-.14-1.17-.49-1.82-.85-.95-.53-1.92-1.09-2.96-1.1l-1.02-.02.61.82c.48.64,1.56,1.26,2.8,1.97,1.32.75,3.09,1.76,3.33,2.54-.2.02-.45.07-.62.3-.14.19-.17.42-.09.69l.07.25.25.09c.29.1.78.25,1.34.43,1.22.38,3.49,1.07,3.9,1.42.11.09.29.55.42.88.29.74.66,1.67,1.37,2.27.75.63,2.97,1.46,4.33,1.46.22,0,.43-.02.59-.07.31-.09,2.76-1.8,2.86-1.89,3.52-3.45,3.31-8,3.11-12.4-.07-1.54-.14-3.13-.04-4.61l.06-.88-.84.43-.02-.25c-.48-6.91-.97-14.05-1.02-21.14,0-.81-.02-1.62-.03-2.44-.08-5.99-.16-12.19,2.08-17.6.43-1.04.38-2.17-.15-3.34-1.44-3.19-6.07-5.89-8.22-6.63ZM54.88,38.47c.02.05.04.1.04.15.22,2.5.33,5.06.43,7.54.02.39.03.79.05,1.18-.23-2.8-.38-5.87-.52-8.87ZM47.36,12.07c-.07-.09-.14-.18-.22-.27-1.12-1.25-2.32-1.69-3.54-1.69-1.55,0-3.13.71-4.61,1.36-.07.03-.15.07-.22.1l-.25-2.85c1.77.23,3.3-.47,4.77-1.15,1.36-.63,2.65-1.22,4.07-1.06v5.55ZM43.28,15.91c.25-.1.67-.2,1.12-.31,1.04-.25,2.27-.54,2.95-1.17v3.44c-2.12-.53-4.01-.09-5.83.33-.71.17-1.43.33-2.18.45.91-1.15,2.23-2.07,3.94-2.75ZM34.8,37.98c.01.14.03.36.04.37-.36.33-2.44.95-3.3,1.03l.14-1.42,3.12-.73c-.04.26-.02.53,0,.74Z"/>
      <path class="cls-2" d="M10.58,55.71c-.29-4.65-.08-9.53.12-14.25.11-2.66.23-5.41.26-8.08l1.86.16,7.56-6.53c1.66,1.03,2.92,1.31,3.86.86,1.46-.7,1.67-2.93,1.88-5.09.08-.87.16-1.69.31-2.4.19-.9.64-1.86,1.06-2.78.63-1.37,1.29-2.79,1.24-4.2l-.04-1.21-2.06,2.22c0-.07.01-.13.02-.19.04-.52.08-1.01.2-1.4.08-.25.28-.47.52-.72.33-.35.71-.75.81-1.36.52-3.02-3.06-5.08-5.02-5.75-3.25-1.11-4.27-.43-5.81.59-.62.41-1.33.88-2.35,1.33-.3.13-1.25.44-2.26.76-4.06,1.29-4.2,1.41-4.27,1.84-.1.6.08,1.22.54,1.84,1.08,1.47,3.43,2.61,4.65,2.78,1.35.19,2.34-.39,3.22-.89.49-.28.96-.55,1.47-.69l-.27,4.55c-.43-.42-.93-.85-1.6-1.05-2.07-.61-3.65.21-5.17.99-.7.36-1.43.73-2.2.96-1.08-1.82-2.91-2.7-4.68-3.55-.87-.42-1.68-.81-2.41-1.31-.09-.06-.13-.14-.19-.29-.09-.22-.31-.73-.96-.65l-.34.04-.09.33c-.67,2.45.1,4.51.84,6.51.37,1,.75,2.02.94,3.08,1.28,7.05.35,26.21-1.2,32.92-.2.87-.44,1.4-.63,1.83-.51,1.14-.68,1.7.35,4.23.45,1.11,2.8,5.71,4.4,6.4.4.17.8.18,1.11.19.15,0,.29,0,.39.03.01.03.03.06.04.08.08.2.22.54.62.65.07.02.15.03.23.03.31,0,.68-.17,1.17-.53.25-.19.4-.42.53-.63.08-.13.16-.25.18-.29.04-.01.15-.02.22-.02.23-.01.51-.03.71-.23.57-.56.49-1.55.43-2.27,0-.09-.02-.2-.02-.29.04-.01.07-.02.1-.03.29-.09.77-.25.86-.75.11-.62-.15-2.09-.6-4.43-.25-1.3-.5-2.64-.54-3.31ZM12.42,25.77c.82-1.97,2.71-3.1,4.7-4.29.31-.19.62-.37.93-.56.03.53.06,1.08-.13,1.4-.25.42-2.23,1.55-3.53,2.3-.71.41-1.4.8-1.97,1.15ZM12.43,21.98c-.22.52-.69,1.34-1.1,1.94v-1.94s1.1,0,1.1,0Z"/>
      <path class="cls-2" d="M388.66,60.91l-.61-.78c-.32.19-.45.17-.48.16-.16-.05-.36-.49-.51-.85-.18-.41-.38-.87-.7-1.26-3.12-3.92-8.82-7.3-13.55-8.03l-.48-.07-.22,1.16-2.22.05.38.71c.27.52.64.98,1,1.43.7.88,1.32,1.66,1.16,2.7-3.8,1.66-7.75,2.62-11.5,3.38.03-.04.07-.07.1-.12,1.05-1.36,2.43-2.76,3.76-4.11,1.07-1.08,2.18-2.2,3.14-3.34.68-1.02.13-1.82-.27-2.4-.15-.22-.3-.43-.39-.65,1.19-.21,2.36-.62,3.5-1.02,1.24-.43,2.41-.84,3.6-1.01.4-.06,1.1-.07,1.85-.09,2.44-.05,4.22-.14,4.92-.87.2-.21.71-2.08.65-2.39-.24-1.2-1.43-2.49-3.26-3.53-1.87-1.07-4.49-1.89-6.11-1.32-.57.2-1.15.65-1.71,1.09-.42.33-.86.67-1.2.82-2.57,1.13-19.28,6.54-21,6.54,0,0-.02,0-.03,0-.25,0-.5-.13-.78-.27-.43-.21-.97-.48-1.64-.33l-.6.12.24.56c.08.19.07.27-.34.54-.19.12-.38.25-.44.5-.43,2.04,3.12,4.96,4.45,5.51,2.48,1.04,4.17.22,5.95-.65.27-.13.55-.27.83-.4-.05.1-.09.21-.14.31-1.51,3.34-3.8,8.38-7.34,7.37l-.18-.05-.88.4-.08.11c-.98,1.41-1.11,3.47-.37,5.65.88,2.59,2.76,4.73,4.68,5.34.45.14.82.2,1.14.2.95,0,1.44-.53,1.91-1.04.26-.29.53-.58.92-.82,2.31-1.43,5.36-2.23,8.31-3.01,1.7-.45,3.46-.91,5.01-1.49.99-.36,1.93-.87,2.85-1.36,1.11-.59,2.15-1.15,3.26-1.48l.38-.11-.03-.4c-.02-.37-.19-.62-.53-.76,0,0,0,0,0-.01l.15-.32-.43-.43,1.01-.65,2.67,4.89-1.91,2.11.54.8c1.67-.62,2.65.24,3.79,1.24.63.55,1.28,1.12,2.08,1.45,1.37.56,4.13.54,5.35-.77.48-.51,1.18-4.83,1.16-5.18-.03-.56-.35-1.08-.65-1.59-.58-.96-.87-1.54-.19-2.22Z"/>
      <path class="cls-2" d="M518.74,15.66c-.29.08-.43.3-.5.55-.42-.44-1.01-1.01-1.72-1.68-.4-.38-.9-.85-1.03-1-.17-.48-.16-1.06-.15-1.73.02-.88.04-1.89-.39-2.92-1.09-2.6-3.99-3.65-8.39-3.05-11.53,1.58-18.72,13.91-21.61,24.92-3.23,12.3-2.41,27.81,6.69,34.72,2.84,2.16,6.27,3.24,9.77,3.24s7.04-1.07,10.16-3.22c5.7-3.93,10.18-12.59,11.98-23.16,1.81-10.63.44-20.33-3.65-25.94-.33-.45-.69-.84-1.15-.72ZM496.53,55.46c-3.28-3.33-3.82-8.42-3.69-12.11.27-8.11,4.07-17.41,8.82-21.64,2.3-2.04,4.09-3.01,5.58-3.01.21,0,.42.02.62.06,1.37.27,2.55,1.45,3.61,3.61,4.35,8.82,1.61,23.48-3.74,30.7-2.04,2.76-4.35,4.36-6.49,4.51-1.64.11-3.23-.6-4.73-2.12ZM485.09,43.28c.12-3.92.64-8.82,2.2-12.93-1.33,4.71-2.02,9.2-2.06,13.53l-.13-.6Z"/>
      <path class="cls-2" d="M259.45,56.1c-.02-.6.17-1.19.37-1.83.18-.58.37-1.17.41-1.8l.07-1.06-3.38,2.44c-.58-.8-1.11-7.01-.33-11.17.12-.62.41-1.41.69-2.18.37-1.01.73-1.97.76-2.69.1-2.05-.99-3.29-2.05-4.5-.62-.7-1.26-1.43-1.67-2.33l-.15-.32-.35.03c-5.01.4-4.76,5.51-4.56,9.62.06,1.21.11,2.34.04,3.29-.26,3.54-1.43,8.46-3.85,10.68-1.38,1.26-2.52,1.69-3.39,1.28-1.51-.71-2.16-3.76-2.03-6.41.1-2,1.12-6.87,1.99-8.33.26-.44.53-.69.8-.94.74-.69,1.18-1.26.91-3.28-.17-1.32-1.86-3.67-2.95-4.39-2.8-1.86-4.18-1.46-6.46-.82-.45.13-.95.27-1.51.41l-.34.08-.04.34c-.19,1.66-.6,2.16-2.2,2.7l-1.2.41,3.76,1.72c-.12,1.11-.28,2.3-.46,3.55-1.01,7.23-2.26,16.22,4.63,20.43,1.78,1.09,3.83,1.65,5.84,1.65,1.06,0,2.12-.16,3.11-.48,2.15-.7,3.84-2.13,4.83-4.06.28.31.49.76.69,1.2.21.45.4.87.69,1.19,1.05,1.19,3.04,1.9,4.72,1.69,1.23-.16,2.19-.79,2.68-1.78.85-1.68.65-2.3.27-3.06-.17-.34-.33-.66-.35-1.28Z"/>
      <path class="cls-2" d="M555.13,15.65c.74-.58,1.2-.95,1.34-1.39,1.07-3.32-1.31-7.08-4.15-9.33-2.44-1.94-6.08-3.39-8.96-1.65-.24.15-.53.59-1.94,2.99-.7,1.2-1.43,2.44-1.77,2.88-.55.73-1.94,2.28-3.41,3.92-3.6,4.02-5.97,6.73-6.14,7.62-.04.23-.18.95.31,1.29.57.4,1.37-.08,2.14-.54.21-.13.54-.32.61-.34.19,0,.44.19.7.38.37.28.78.6,1.32.62.57.01,1.58-.44,3.16-1.21.61-.3,1.44-.71,1.97-.9l-5.4,35.83c-.78,1.38-2.17,1.25-4.17.9-1.13-.19-2.2-.38-3.03,0-1.15.52-1.46,1.71-1.77,2.86-.23.86-.46,1.75-1.04,2.3l-.3.29.23.35c.27.41.57.92.88,1.46,1.3,2.25,2.93,5.05,5.32,5.3.03,0,.07,0,.11,0,.61,0,1.78-.45,3.69-1.2,1.4-.55,2.99-1.18,3.72-1.28.81-.11,2.82-.07,4.94-.02,6.71.14,9.61.04,10.21-.9.56-.93.47-2.87.39-4.74-.04-.9-.09-2.12.02-2.37.17-.3.46-.43.8-.57.46-.19,1.09-.46,1.11-1.28v-.37s-.33-.12-.33-.12c-.73-.25-1.56-.31-2.36-.37-1.06-.07-2.06-.14-2.49-.65-.22-.26-.3-.67-.25-1.23l.08-.81-2.14.83-.03,1.03-2.19.04,1.18-12.71,1.03-3.88v4.7c0,.11,0,.32.57.83.41.37.76.53,1.07.5l.44-.05v-.44c.02-1.84-.03-3.69-.08-5.65-.2-7.56-.4-15.37,3.33-21.76.2-.34.76-.78,1.25-1.17Z"/>
      <path class="cls-2" d="M404,36.18c1.13.45,2.03.63,2.79.63,1.51,0,2.48-.73,3.61-1.58.59-.45,1.26-.95,2.11-1.41,4.54-2.48,8.27-3.91,12.86-4.92.46-.1,1.03-.16,1.63-.23,1.65-.18,3.53-.39,4.4-1.56.53-.71.62-1.56.26-2.44-.72-1.76-3.15-3.42-4.76-3.67-.41-.06-.75-.02-1.03.04.28-.14.55-.31.8-.57.88-.92,1.28-2.12,1.15-3.49-.24-2.55-2.2-5.19-4.01-6.49-1.98-1.41-4.09-1.58-6.13-1.74-.89-.07-1.81-.14-2.73-.32l-.13-.02-.12.04c-1.03.34-1.42,1.02-1.55,1.53-.62,2.26,2.16,5.51,2.28,5.65.33.38.74.66,1.1.9.73.49,1.09.78,1.01,1.44-.05.05-.12.12-.21.2-.76.72-2.02,1.92-1.63,2.99l.18.5.49-.22c.25-.11.61-.3.99-.51.64-.35,1.6-.87,1.99-.91.53-.05,1.32.24,2.16.56.49.18,1.01.37,1.54.52-.32.26-.74.63-1.32,1.14-.42.38-.99.9-1.14.98-1.34.73-13.3,4.9-15.05,5.24-1.12.22-2.07.05-3.16-.15l-.79-.14-1.91,1.79-.03.15c-.59,2.6,2.15,5.19,4.36,6.06Z"/>
      <path class="cls-2" d="M168.25,50.2c-2.12-.99-7.27-2.58-9.55-2.08-.22.05-.35.21-.64.54-.17.2-.56.67-.71.73l-.92.2.69.65c2.65,2.51,4.46,4.64,5.82,6.84l-3.22,2.47.45.88c1.03-.31,1.22-.22,1.23-.21.02.01.05.07.08.11.1.17.26.42.62.58.89.39,1.45.19,1.81.06.02,0,.05-.02.07-.02.05.17.16.37.41.45.78.23,1.65.69,2.58,1.17,1.47.77,3.15,1.65,4.74,1.65,1.01,0,1.98-.36,2.83-1.34.95-1.1,1.27-2.53.93-4.12-.79-3.7-4.77-7.4-7.21-8.54Z"/>
      <path class="cls-2" d="M100.26,29.17c1.94-.16,16.41-1.51,17.12-5.3l.02-.1-.02-.1c-1.04-4.39-5.17-6.92-11.09-6.86-2.83.04-3.47.78-4.01,1.73-.19.33-.33.58-.69.76-1.81.91-14.67,4.7-17.5,5.06.58-1.85,1.41-3.5,2.16-4.98,1.85-3.66,3.45-6.81.05-10.5-3.27-3.55-6.68-3.71-11.47-2.8l-.27.05-.1.26c-.71,1.85.58,4.12,1.62,5.94.57.99,1.1,1.93,1.14,2.48.25,3.99-6.37,15.9-9.56,21.62-.46.83-.86,1.54-1.17,2.12-.27.49-.69,1.05-1.13,1.63-1.1,1.45-2.23,2.95-1.59,4.24l.35.72.49-.63c1.93-2.49,4.3-3.48,6.81-4.52,3.27-1.36,6.65-2.76,9.02-7.61,3.75,1.51,6.83,1.17,10.36.78.51-.06,1.04-.11,1.58-.17,1.57,2.17-3.39,14.11-5.9,18.79q-11.96,11.19-11.7,11.65c.13.22.28.29.58.26-.21.21-.25.37-.16.6l.08.2.19.08s.07.03.12.03c.38,0,1.91-.56,12.75-4.92l.12-.07c4.78-3.73,7.54-10.33,10.2-16.72,1.16-2.79,2.26-5.42,3.51-7.82l.05-.15c.36-2.25-.77-3.51-1.52-4.35-.69-.77-.82-.97-.46-1.38Z"/>
    </g>
  </g>
</svg>