<?xml version="1.0" encoding="UTF-8"?>
<svg id="_レイヤー_2" data-name="レイヤー 2" xmlns="http://www.w3.org/2000/svg" viewBox="0 0 123.9 164.39">
  <defs>
    <style>
      .cls-1, .cls-2, .cls-3, .cls-4, .cls-5, .cls-6, .cls-7, .cls-8, .cls-9, .cls-10 {
        stroke-miterlimit: 10;
      }

      .cls-1, .cls-2, .cls-4, .cls-5, .cls-11 {
        stroke: #302026;
      }

      .cls-1, .cls-2, .cls-5 {
        stroke-width: 2.45px;
      }

      .cls-1, .cls-12, .cls-7, .cls-11 {
        fill: #302026;
      }

      .cls-2, .cls-5 {
        fill: #fff8e6;
      }

      .cls-2, .cls-11, .cls-13, .cls-14 {
        stroke-linecap: round;
      }

      .cls-3 {
        fill: #d2e0ea;
        stroke: #b3c7d4;
      }

      .cls-3, .cls-9 {
        stroke-width: 4.74px;
      }

      .cls-4 {
        fill: #fff;
        stroke-width: 2.15px;
      }

      .cls-6, .cls-7 {
        stroke: #7c7a7a;
        stroke-width: 1.36px;
      }

      .cls-6, .cls-13 {
        fill: none;
      }

      .cls-11 {
        stroke-width: 2.25px;
      }

      .cls-11, .cls-13, .cls-14 {
        stroke-linejoin: round;
      }

      .cls-15 {
        fill: #7c7a7a;
      }

      .cls-13 {
        stroke-width: 2.3px;
      }

      .cls-13, .cls-14 {
        stroke: #77152d;
      }

      .cls-14 {
        fill: #d30732;
        stroke-width: 1.09px;
      }

      .cls-8 {
        fill: #331f26;
        stroke: #331f26;
        stroke-width: 3.38px;
      }

      .cls-9 {
        fill: #f5cf62;
        stroke: #f5cf62;
      }

      .cls-10 {
        fill: #ffce61;
        stroke: #eab234;
        stroke-width: .59px;
      }
    </style>
  </defs>
  <g id="_レイヤー_1-2" data-name="レイヤー 1">
    <g>
      <path class="cls-5" d="M44.06,103.36l-12.46,8.99c-1.23.89-1.06,2.8.31,3.44l9.29,4.36c.89.42,1.33,1.43,1.05,2.38l-9.05,30.42c-.47,1.57,1.03,3.01,2.55,2.44l24.46-9.09c.58-.22,1.22-.14,1.74.2l17.52,11.58c1.36.9,3.15-.18,3.03-1.83l-2.26-30.44c-.12-1.55,1.49-2.64,2.85-1.93l9.59,4.96c1.75.9,3.58-1.07,2.59-2.79l-12.13-21.01c-.32-.55-.88-.92-1.51-.97l-30.18-2.74c-2.62-.24-5.23.48-7.38,2.03Z"/>
      <path class="cls-1" d="M37.65,155.26s8.67,8.68,2.93,7.85c-5.74-.83-8.99-3.03-8.99-3.03,0,0,.13-6.59,1.34-6.54s4.73,1.72,4.73,1.72Z"/>
      <path class="cls-1" d="M81.85,155.61s11.39,4.39,5.79,5.98c-5.6,1.59-9.44.91-9.44.91,0,0-2.49-6.08-1.36-6.53s5.01-.36,5.01-.36Z"/>
      <path class="cls-11" d="M83.86,124.54l3.34,1.25,5.1-3.84-8.19-13.33c-1.65-1.78-3.85-2.88-6.21-3.09l-13.26-1.21-13.26-1.21c-2.36-.21-4.73.47-6.67,1.92l-10.14,5.18,1.74,7.74,5.76,2.79c.8.39,1.2,1.34.94,2.23l-8.26,28.49c-.43,1.47.92,2.81,2.29,2.28l23.87-8.41,21.96,12.58c1.25.77,2.82-.3,2.67-1.83l-2.99-29.51c-.09-.92.47-1.78,1.33-2.02Z"/>
      <rect class="cls-5" x="36.22" y="51.87" width="56.77" height="63.54" rx="28.39" ry="28.39" transform="translate(7.84 -5.5) rotate(5.19)"/>
      <ellipse class="cls-4" cx="52.93" cy="84.23" rx="5.7" ry="5.64" transform="translate(-35.75 129.32) rotate(-84.81)"/>
      <ellipse class="cls-12" cx="54.79" cy="84.4" rx="3.83" ry="3.89" transform="translate(-34.23 131.32) rotate(-84.81)"/>
      <ellipse class="cls-4" cx="74.85" cy="85.71" rx="5.7" ry="5.64" transform="translate(-17.28 152.5) rotate(-84.81)"/>
      <ellipse class="cls-12" cx="76.59" cy="85.87" rx="3.83" ry="3.89" transform="translate(-15.85 154.37) rotate(-84.81)"/>
      <g>
        <path class="cls-7" d="M94.19,61.77c1.61-17.76-9.64-33.3-25.15-34.71s-29.38,11.85-30.99,29.61"/>
        <path class="cls-7" d="M23.47,49.66l-18.69,29.71s7.95,13.18,17.44,13.37c5.49-5.05,18.07-29.44,18.07-29.44,0,0-11.51-6.31-16.81-13.64Z"/>
        <path class="cls-6" d="M36,70.11s-16.26-9.83-16.78-13.7"/>
        <path class="cls-6" d="M17.69,58.86s3.37,4.81,8.09,7.95c4.73,3.14,9.42,5.62,9.42,5.62"/>
        <path class="cls-6" d="M9.32,71.94s3.47,4.97,8.35,8.22c4.88,3.25,9.72,5.8,9.72,5.8"/>
        <path class="cls-6" d="M8.25,74.71s3.47,4.97,8.35,8.22c4.88,3.25,9.72,5.8,9.72,5.8"/>
        <path class="cls-7" d="M94.19,61.77c-.42,4.63-2.53,9.84-29.02,7.24-25.6-2.51-27.54-7.72-27.12-12.35s13.25-7.1,28.76-5.69c15.5,1.41,27.81,6.17,27.38,10.8Z"/>
        <path class="cls-6" d="M39.03,50.76c.42-4.63,13.1-7.26,28.32-5.87,15.22,1.38,27.22,6.26,26.8,10.88"/>
        <g>
          <g>
            <path class="cls-6" d="M49.99,44.96s4.13-10.59,13.28-17.95"/>
            <path class="cls-6" d="M68.16,26.98s-9.15,9.87-11.5,17.49"/>
          </g>
          <g>
            <path class="cls-6" d="M84.4,48.33s-2.15-11.16-9.83-20.05"/>
            <path class="cls-6" d="M69.77,27.36s7.22,11.36,8.16,19.27"/>
          </g>
        </g>
        <path class="cls-7" d="M66.59,24.37h5.14c.52,0,.94.42.94.94v1.75h-7.02v-1.75c0-.52.42-.94.94-.94Z" transform="translate(2.61 -6.15) rotate(5.19)"/>
        <path class="cls-7" d="M68.66,21.62h1.37c.52,0,.94.42.94.94v1.75h-3.26v-1.75c0-.52.42-.94.94-.94Z" transform="translate(2.36 -6.18) rotate(5.19)"/>
        <ellipse class="cls-15" cx="62.37" cy="30.59" rx="1.16" ry="1.14" transform="translate(26.26 89.93) rotate(-84.81)"/>
        <ellipse class="cls-15" cx="58.69" cy="35.35" rx="1.16" ry="1.14" transform="translate(18.17 90.6) rotate(-84.81)"/>
        <ellipse class="cls-15" cx="55.06" cy="40.62" rx="1.16" ry="1.14" transform="translate(9.63 91.78) rotate(-84.81)"/>
        <ellipse class="cls-15" cx="74.5" cy="31.71" rx="1.16" ry="1.14" transform="translate(36.17 103.04) rotate(-84.81)"/>
        <ellipse class="cls-15" cx="77.26" cy="37.06" rx="1.16" ry="1.14" transform="translate(33.37 110.65) rotate(-84.81)"/>
        <ellipse class="cls-15" cx="79.88" cy="42.9" rx="1.16" ry="1.14" transform="translate(29.93 118.56) rotate(-84.81)"/>
        <path class="cls-7" d="M110.09,57.63l13.03,32.59s-10.2,11.53-19.56,10.01c-4.49-5.95-12.47-32.21-12.47-32.21,0,0,12.45-4.13,19-10.39Z"/>
        <path class="cls-6" d="M94.08,75.48s17.77-6.73,18.97-10.45"/>
        <path class="cls-6" d="M114.12,67.72s-4.18,4.13-9.39,6.37c-5.22,2.24-10.28,3.83-10.28,3.83"/>
        <path class="cls-6" d="M120,82.09s-4.31,4.26-9.7,6.58c-5.38,2.31-10.61,3.96-10.61,3.96"/>
        <path class="cls-6" d="M120.55,85.01s-4.31,4.26-9.7,6.58c-5.38,2.31-10.61,3.96-10.61,3.96"/>
      </g>
      <line class="cls-2" x1="58.89" y1="74.49" x2="50.33" y2="71.51"/>
      <line class="cls-2" x1="69.36" y1="75.44" x2="78.32" y2="74.05"/>
      <path class="cls-13" d="M88.53,114.41c-.32-.38-15.2,6.13-25.31,5.3-10.11-.83-24.05-12.83-24.05-12.83"/>
      <rect class="cls-13" x="61.77" y="117.72" width="2.92" height="3.97" rx="1.25" ry="1.25" transform="translate(11.09 -5.23) rotate(5.19)"/>
      <path class="cls-13" d="M74.5,125.1c1.99-7.02-11.29-5.11-11.29-5.11,0,0,9.3,12.13,11.29,5.11Z"/>
      <path class="cls-13" d="M51.17,122.98c-.7-7.26,12.03-2.99,12.03-2.99,0,0-11.34,10.26-12.03,2.99Z"/>
      <path class="cls-13" d="M63.2,120s3.72,20.39,8.08,26.96"/>
      <path class="cls-13" d="M63.2,120s-7.34,19.39-12.81,25.07"/>
      <g>
        <path class="cls-3" d="M25.78,98.78s-14.07-32.16-16.46-33.6-8.14-4.76-6.73-2.56,6.53,10,10.4,18.27c3.47,7.41,9.04,19.67,9.04,19.67l3.75-1.78Z"/>
        <path class="cls-8" d="M29.15,101.96h0c1.44,0,2.6,1.17,2.6,2.6v14.68h-5.21v-14.68c0-1.44,1.17-2.6,2.6-2.6Z" transform="translate(102.96 197.98) rotate(154.57)"/>
        <path class="cls-9" d="M20.65,105.73l-.33-.68c-.13-.27-.02-.6.26-.73l.34-.16s-.01-.02-.02-.03l-1.07-2.21c-.3-.62-.03-1.37.6-1.66l6.32-2.94c.63-.29,1.39-.03,1.7.59l1.07,2.21s0,.02.01.03l.5-.23c.28-.13.61-.01.74.26l.33.68c.13.27.02.6-.26.73l-9.45,4.39c-.28.13-.61.01-.74-.26Z"/>
      </g>
      <path class="cls-10" d="M85.3,9.64c-4.3-.43-7.5,2.44-9.59,5.37-.55.77-.28,1.86.55,2.26,2.37,1.16,6.47,4.17,6.06,11.03-.47,7.84-6.12,15.04-12.34,14.81-6.2-.51-10.96-8.33-10.5-16.17.41-6.93,4.81-9.4,7.3-10.25.88-.3,1.29-1.36.83-2.19-1.73-3.15-4.56-6.37-8.87-6.45-.51,0-.98-.26-1.25-.71C54.6,2.42,45.04.81,40.25.3c-1.16-.12-2,1.12-1.48,2.2,1.51,3.09,4.4,9.71,9.04,23,7.39,21.18,12.74,23.52,21.79,24.11s14.64-1.2,24.49-21.36c6.19-12.65,9.84-18.88,11.7-21.77.65-1.01-.04-2.34-1.21-2.36-4.81-.07-14.5.4-17.97,4.95-.31.41-.82.6-1.32.55Z"/>
      <g>
        <polygon class="cls-14" points="57.15 45.44 67.68 60.54 63.05 45.97 57.15 45.44"/>
        <polygon class="cls-14" points="57.15 45.44 61.65 40.61 66.79 41.08 63.05 45.97 57.15 45.44"/>
        <polygon class="cls-14" points="80.75 47.58 77.19 42.03 72.06 41.56 74.85 47.05 80.75 47.58"/>
        <polygon class="cls-14" points="80.75 47.58 67.68 60.54 74.85 47.05 80.75 47.58"/>
        <polygon class="cls-14" points="66.79 41.08 63.05 45.97 74.85 47.05 72.06 41.56 66.79 41.08"/>
        <polygon class="cls-14" points="67.68 60.54 74.85 47.05 63.05 45.97 67.68 60.54"/>
      </g>
    </g>
  </g>
</svg>