<?xml version="1.0" encoding="UTF-8"?>
<svg id="_レイヤー_2" data-name="レイヤー 2" xmlns="http://www.w3.org/2000/svg" viewBox="0 0 136.66 166.01">
  <defs>
    <style>
      .cls-1, .cls-2, .cls-3, .cls-4, .cls-5, .cls-6, .cls-7, .cls-8, .cls-9 {
        stroke-miterlimit: 10;
      }

      .cls-1, .cls-3, .cls-10, .cls-7 {
        stroke: #302026;
      }

      .cls-1, .cls-3, .cls-7 {
        stroke-width: 2.39px;
      }

      .cls-1, .cls-11, .cls-5, .cls-10 {
        fill: #302026;
      }

      .cls-2 {
        fill: #d2e0ea;
        stroke: #b3c7d4;
      }

      .cls-2, .cls-8 {
        stroke-width: 4.74px;
      }

      .cls-12 {
        stroke: #5137d1;
        stroke-width: 2.68px;
      }

      .cls-12, .cls-4 {
        fill: none;
      }

      .cls-12, .cls-10, .cls-13 {
        stroke-linecap: round;
        stroke-linejoin: round;
      }

      .cls-3 {
        fill: #fff8e6;
      }

      .cls-4, .cls-5 {
        stroke: #7c7a7a;
        stroke-width: 1.33px;
      }

      .cls-10 {
        stroke-width: 2.2px;
      }

      .cls-14 {
        fill: #7c7a7a;
      }

      .cls-13 {
        fill: #d30732;
        stroke: #77152d;
        stroke-width: 1.06px;
      }

      .cls-6 {
        fill: #331f26;
        stroke: #331f26;
        stroke-width: 3.38px;
      }

      .cls-7 {
        fill: #fff;
      }

      .cls-8 {
        fill: #f5cf62;
        stroke: #f5cf62;
      }

      .cls-9 {
        fill: #ffce61;
        stroke: #eab234;
        stroke-width: .59px;
      }
    </style>
  </defs>
  <g id="_レイヤー_1-2" data-name="レイヤー 1">
    <path class="cls-3" d="M36.97,101.5l-12.88,7.7c-1.27.76-1.27,2.63,0,3.37l8.67,5.02c.83.48,1.18,1.51.82,2.41l-11.36,28.84c-.59,1.49.75,3.01,2.27,2.59l24.57-6.78c.58-.16,1.2-.03,1.68.34l16.07,12.74c1.25.99,3.08.09,3.1-1.52l.37-29.81c.02-1.52,1.67-2.44,2.94-1.64l8.91,5.64c1.62,1.03,3.57-.74,2.75-2.5l-10.03-21.47c-.26-.57-.78-.97-1.39-1.07l-29.14-5.21c-2.53-.45-5.13.03-7.35,1.35Z"/>
    <path class="cls-1" d="M22.87,147.21s-11.86,1.2-7,4.14c4.86,2.94,8.66,3.29,8.66,3.29,0,0,3.91-5.08,2.97-5.8s-4.63-1.63-4.63-1.63Z"/>
    <path class="cls-1" d="M67.76,157.86s-10.09,6.49-4.43,6.89c5.66.39,9.22-1.03,9.22-1.03,0,0,1.25-6.32.08-6.52s-4.87.67-4.87.67Z"/>
    <path class="cls-10" d="M73.93,125.46l3.14,1.5,5.28-3.31-6.85-13.66c-1.45-1.87-3.51-3.12-5.79-3.53l-12.8-2.29-12.8-2.29c-2.28-.41-4.64.06-6.65,1.31l-10.3,4.19,1.04,7.68,5.37,3.2c.74.44,1.06,1.4.73,2.25l-10.43,27.02c-.54,1.4.66,2.81,2.04,2.41l23.93-6.18,20.31,14.09c1.16.86,2.77-.06,2.75-1.56l-.42-28.97c-.01-.91.61-1.7,1.46-1.85Z"/>
    <rect class="cls-3" x="30.91" y="53" width="55.45" height="62.06" rx="27.73" ry="27.73" transform="translate(15.71 -9.01) rotate(10.14)"/>
    <ellipse class="cls-7" cx="47.04" cy="84.59" rx="7.2" ry="5.51" transform="translate(-44.5 116.01) rotate(-79.86)"/>
    <ellipse class="cls-11" cx="45.4" cy="84.12" rx="4.84" ry="3.8" transform="translate(-45.4 114) rotate(-79.86)"/>
    <ellipse class="cls-7" cx="68.28" cy="87.73" rx="7.2" ry="5.51" transform="translate(-30.09 139.51) rotate(-79.86)"/>
    <ellipse class="cls-11" cx="66.22" cy="87.36" rx="4.84" ry="3.8" transform="translate(-31.43 137.17) rotate(-79.86)"/>
    <path class="cls-11" d="M65.12,75.71l4.7-2.62c.69-.38,1.73-.25,1.79.23l.26,1.86c.05.33-.41.67-1.01.77l-4.97.76c-1.08.16-1.62-.53-.78-.99Z"/>
    <path class="cls-11" d="M53.09,73.56l-3.5-4.09c-.51-.6-1.53-.83-1.76-.41l-.89,1.65c-.16.29.15.77.69,1.07l4.4,2.43c.96.53,1.7.07,1.08-.66Z"/>
    <g>
      <path class="cls-5" d="M89.26,65.25c3.07-17.15-6.58-33.22-21.55-35.9s-29.59,9.06-32.65,26.2"/>
      <path class="cls-5" d="M21.47,47.51L.78,74.85s6.63,13.49,15.84,14.48c5.77-4.45,20.06-27.12,20.06-27.12,0,0-10.67-7.11-15.21-14.69Z"/>
      <path class="cls-4" d="M31.94,68.46s-15-10.93-15.17-14.74"/>
      <path class="cls-4" d="M15.06,55.97s2.87,4.97,7.21,8.42c4.34,3.46,8.7,6.26,8.7,6.26"/>
      <path class="cls-4" d="M5.81,68s2.96,5.13,7.44,8.7c4.47,3.57,8.97,6.47,8.97,6.47"/>
      <path class="cls-4" d="M4.54,70.6s2.96,5.13,7.44,8.7c4.47,3.57,8.97,6.47,8.97,6.47"/>
      <path class="cls-5" d="M89.26,65.25c-.8,4.47-3.29,9.36-28.85,4.61-24.7-4.59-26.15-9.83-25.35-14.3.8-4.47,13.5-5.8,28.46-3.12s26.54,8.34,25.74,12.81Z"/>
      <path class="cls-4" d="M36.51,49.89c.8-4.47,13.36-5.96,28.05-3.33,14.7,2.63,25.96,8.38,25.16,12.85"/>
      <g>
        <g>
          <path class="cls-4" d="M47.67,45.17s4.91-9.96,14.43-16.35"/>
          <path class="cls-4" d="M66.86,29.2s-9.73,8.84-12.66,16.05"/>
        </g>
        <g>
          <path class="cls-4" d="M80.86,51.35s-1.15-11.04-7.88-20.34"/>
          <path class="cls-4" d="M68.39,29.71s6.07,11.66,6.31,19.44"/>
        </g>
      </g>
      <path class="cls-5" d="M65.73,26.74h4.42c.67,0,1.22.55,1.22,1.22v1.41h-6.86v-1.41c0-.67.55-1.22,1.22-1.22Z" transform="translate(6 -11.52) rotate(10.14)"/>
      <path class="cls-5" d="M67.98,24.08h.74c.67,0,1.22.55,1.22,1.22v1.41h-3.18v-1.41c0-.67.55-1.22,1.22-1.22Z" transform="translate(5.54 -11.63) rotate(10.14)"/>
      <ellipse class="cls-14" cx="60.92" cy="32.23" rx="1.13" ry="1.12" transform="translate(18.47 86.52) rotate(-79.86)"/>
      <ellipse class="cls-14" cx="56.94" cy="36.55" rx="1.13" ry="1.12" transform="translate(10.94 86.16) rotate(-79.86)"/>
      <ellipse class="cls-14" cx="52.97" cy="41.37" rx="1.13" ry="1.12" transform="translate(2.92 86.23) rotate(-79.86)"/>
      <ellipse class="cls-14" cx="72.63" cy="34.34" rx="1.13" ry="1.12" transform="translate(26.04 99.8) rotate(-79.86)"/>
      <ellipse class="cls-14" cx="74.87" cy="39.77" rx="1.13" ry="1.12" transform="translate(22.54 106.48) rotate(-79.86)"/>
      <ellipse class="cls-14" cx="76.92" cy="45.67" rx="1.13" ry="1.12" transform="translate(18.42 113.36) rotate(-79.86)"/>
      <path class="cls-5" d="M105.08,62.56l9.94,32.81s-10.9,10.36-19.88,8.09c-3.87-6.17-9.42-32.39-9.42-32.39,0,0,12.47-2.97,19.36-8.51Z"/>
      <path class="cls-4" d="M88,78.58s17.86-5.06,19.34-8.57"/>
      <path class="cls-4" d="M108.16,72.71s-4.41,3.66-9.68,5.4-10.33,2.86-10.33,2.86"/>
      <path class="cls-4" d="M112.66,87.2s-4.56,3.79-9.99,5.58c-5.43,1.8-10.66,2.96-10.66,2.96"/>
      <path class="cls-4" d="M112.95,90.08s-4.56,3.79-9.99,5.58-10.66,2.96-10.66,2.96"/>
    </g>
    <g>
      <path class="cls-12" d="M74.41,118.64c-.23-.32-13.89,4.42-21.73,3.09-7.84-1.33-19.28-11.77-19.28-11.77"/>
      <rect class="cls-12" x="51.53" y="120.17" width="2.29" height="3.11" rx="1.07" ry="1.07" transform="translate(22.25 -7.37) rotate(10.14)"/>
      <path class="cls-12" d="M61.12,126.7c2.03-5.35-8.48-4.76-8.48-4.76,0,0,6.44,10.11,8.48,4.76Z"/>
      <path class="cls-12" d="M43.04,123.47c-.05-5.72,9.6-1.53,9.6-1.53,0,0-9.55,7.25-9.6,1.53Z"/>
      <path class="cls-12" d="M52.64,121.96s1.53,16.18,4.49,21.61"/>
      <path class="cls-12" d="M52.64,121.96s-7.04,14.65-11.7,18.71"/>
    </g>
    <g>
      <path class="cls-2" d="M99.65,120.31s30.76-16.92,31.97-19.43,4.01-8.54,1.94-6.93-9.37,7.41-17.25,12.01c-7.07,4.13-18.77,10.79-18.77,10.79l2.11,3.57Z"/>
      <path class="cls-6" d="M88.18,116.09h0c1.44,0,2.6,1.17,2.6,2.6v14.68h-5.21v-14.68c0-1.44,1.17-2.6,2.6-2.6Z" transform="translate(25.75 264.15) rotate(-120.62)"/>
      <path class="cls-8" d="M92.26,115.84l.64-.39c.26-.16.6-.07.75.2l.19.32s.02-.02.03-.02l2.1-1.27c.59-.36,1.36-.16,1.71.45l3.5,6.03c.35.6.15,1.39-.44,1.74l-2.1,1.27s-.02,0-.03.02l.28.47c.15.27.07.61-.19.76l-.64.39c-.26.16-.6.07-.75-.2l-5.23-9.01c-.15-.27-.07-.61.19-.76Z"/>
    </g>
    <path class="cls-9" d="M85.32,12.57c-4.27-.71-7.64,1.94-9.92,4.73-.6.73-.4,1.83.4,2.29,2.29,1.31,6.19,4.58,5.33,11.4-.98,7.8-7.09,14.61-13.28,13.98-6.15-.91-10.4-9.02-9.42-16.82.86-6.89,5.41-9.07,7.96-9.75.9-.24,1.37-1.27.97-2.13-1.52-3.26-4.13-6.65-8.43-7.01-.5-.04-.96-.32-1.2-.78C55.16,3.36,45.72,1.13,40.98.32c-1.15-.2-2.07.99-1.62,2.1,1.3,3.18,3.75,9.98,7.52,23.54,6,21.62,11.18,24.3,20.17,25.48,8.99,1.18,14.69-.25,25.83-19.72,7-12.22,11.05-18.2,13.1-20.96.71-.96.12-2.34-1.05-2.43-4.8-.38-14.5-.55-18.26,3.77-.34.39-.85.55-1.35.47Z"/>
    <g>
      <polygon class="cls-13" points="54.24 42.18 63.2 57.76 59.93 43.2 54.24 42.18"/>
      <polygon class="cls-13" points="54.24 42.18 59.02 37.86 63.98 38.75 59.93 43.2 54.24 42.18"/>
      <polygon class="cls-13" points="77.02 46.25 74.03 40.55 69.07 39.66 71.32 45.24 77.02 46.25"/>
      <polygon class="cls-13" points="77.02 46.25 63.2 57.76 71.32 45.24 77.02 46.25"/>
      <polygon class="cls-13" points="63.98 38.75 59.93 43.2 71.32 45.24 69.07 39.66 63.98 38.75"/>
      <polygon class="cls-13" points="63.2 57.76 71.32 45.24 59.93 43.2 63.2 57.76"/>
    </g>
  </g>
</svg>