<?xml version="1.0" encoding="UTF-8"?>
<svg id="_レイヤー_2" data-name="レイヤー 2" xmlns="http://www.w3.org/2000/svg" viewBox="0 0 241.57 211.85">
  <defs>
    <style>
      .cls-1 {
        stroke-width: 5.46px;
      }

      .cls-1, .cls-2, .cls-3 {
        stroke-linecap: round;
        stroke-linejoin: round;
      }

      .cls-1, .cls-4, .cls-5 {
        fill: #ffce61;
        stroke: #eab234;
      }

      .cls-2 {
        stroke: #ff0008;
        stroke-width: 5.01px;
      }

      .cls-2, .cls-6 {
        fill: none;
      }

      .cls-3 {
        fill: #ff0008;
        stroke: #89151e;
        stroke-width: 2.24px;
      }

      .cls-7 {
        fill: #302026;
      }

      .cls-7, .cls-4, .cls-5, .cls-6 {
        stroke-miterlimit: 10;
      }

      .cls-7, .cls-6 {
        stroke: #7c7a7a;
        stroke-width: 2.6px;
      }

      .cls-4 {
        stroke-width: 4.25px;
      }

      .cls-5 {
        stroke-width: 3.65px;
      }

      .cls-8 {
        fill: #7c7a7a;
      }
    </style>
  </defs>
  <g id="_レイヤー_1-2" data-name="レイヤー 1">
    <g>
      <path class="cls-7" d="M175.63,125.15c0-33.85-24.36-61.29-54.4-61.29s-54.4,27.44-54.4,61.29"/>
      <g>
        <path class="cls-7" d="M212.77,102.16l27.27,61.03s-18.91,22.49-37.07,20.18c-9.06-11.02-26.16-60.34-26.16-60.34,0,0,23.75-8.6,35.96-20.87Z"/>
        <path class="cls-6" d="M183.07,137.01s33.83-13.86,35.9-20.98"/>
        <path class="cls-6" d="M221.21,121.05s-7.79,8.08-17.7,12.65c-9.92,4.56-19.58,7.89-19.58,7.89"/>
        <path class="cls-6" d="M233.49,147.97s-8.04,8.35-18.27,13.07c-10.23,4.72-20.21,8.15-20.21,8.15"/>
        <path class="cls-6" d="M234.74,153.47s-8.04,8.35-18.27,13.07c-10.23,4.72-20.21,8.15-20.21,8.15"/>
      </g>
      <path class="cls-7" d="M32.27,99.71L1.53,159.07s17.59,23.54,35.85,22.28c9.67-10.48,29.59-58.74,29.59-58.74,0,0-23.22-9.95-34.7-22.9Z"/>
      <path class="cls-6" d="M59.92,136.2s-32.98-15.78-34.64-23.01"/>
      <path class="cls-6" d="M22.75,118.08s7.31,8.52,16.95,13.65,19.09,9,19.09,9"/>
      <path class="cls-6" d="M8.95,144.24s7.54,8.8,17.49,14.1c9.95,5.3,19.71,9.3,19.71,9.3"/>
      <path class="cls-6" d="M7.39,149.66s7.54,8.8,17.49,14.1c9.95,5.3,19.71,9.3,19.71,9.3"/>
      <g>
        <path class="cls-2" d="M173.34,124.6c-.81-.72-27.82,29.25-50.74,29.43-22.92.18-51.37-26.45-51.37-26.45"/>
        <rect class="cls-2" x="119.3" y="149.88" width="6.6" height="8.3" rx="2" ry="2"/>
        <path class="cls-2" d="M149.06,163.13c3.05-15.01-26.46-8.52-26.46-8.52,0,0,23.41,23.53,26.46,8.52Z"/>
        <path class="cls-2" d="M96.13,163.13c-3.05-15.01,26.46-8.52,26.46-8.52,0,0-23.41,23.53-26.46,8.52Z"/>
        <path class="cls-2" d="M122.59,154.66s12.54,41.81,23.7,54.68"/>
        <path class="cls-2" d="M122.59,154.66s-12.54,41.81-23.7,54.68"/>
      </g>
      <path class="cls-7" d="M175.51,119.56c0,8.82-3.14,19.03-54.52,18.68-49.65-.34-54.28-9.86-54.28-18.68s24.24-15.7,54.28-15.7,54.52,6.89,54.52,15.7Z"/>
      <path class="cls-6" d="M67.7,113.81c0-8.82,23.91-15.97,53.41-15.97s53.41,7.15,53.41,15.97"/>
      <g>
        <g>
          <path class="cls-6" d="M87.75,100.98s6.08-20.73,22.39-36.21"/>
          <path class="cls-6" d="M119.53,63.86s-15.85,20.23-19.04,35.03"/>
        </g>
        <g>
          <path class="cls-6" d="M154.47,101.44s-6.08-20.73-22.39-36.21"/>
          <path class="cls-6" d="M122.69,64.32s15.85,20.23,19.04,35.03"/>
        </g>
      </g>
      <circle class="cls-8" cx="109.03" cy="71.69" r="2.2"/>
      <circle class="cls-8" cx="102.79" cy="81.31" r="2.2"/>
      <circle class="cls-8" cx="96.74" cy="91.9" r="2.2"/>
      <circle class="cls-8" cx="132.55" cy="71.73" r="2.2"/>
      <circle class="cls-8" cx="138.79" cy="81.35" r="2.2"/>
      <circle class="cls-8" cx="144.83" cy="91.94" r="2.2"/>
      <g>
        <path class="cls-5" d="M145.86,87.74c-1.76,4.16,5.54-11.37,5.46-19.42-.19-17.95-11.17-25.17-17.53-27.83-2.23-.93-3.09-3.73-1.79-5.82,4.99-7.97,12.88-15.95,24.17-15.49,1.32.05,2.6-.53,3.36-1.65,8.34-12.41,33.54-15.13,46.11-15.71,3.06-.14,5.05,3.24,3.51,5.97-4.41,7.82-12.97,24.64-27.14,58.6-22.57,54.09-36.87,59.63-60.57,59.5-23.7-.13-38-5.41-60.57-59.5C46.68,32.44,38.12,15.62,33.71,7.8c-1.54-2.72.46-6.11,3.51-5.97,12.56.57,37.77,3.29,46.11,15.71.75,1.12,2.04,1.7,3.36,1.65,11.27-.46,19.15,7.49,24.14,15.44,1.32,2.1.43,4.91-1.83,5.83-6.37,2.59-16.99,9.72-17.46,27.86-.22,8.62,5.2,22.55,5.2,22.55"/>
        <polyline class="cls-4" points="174.48 85.13 156.57 87.83 150.49 74.79"/>
        <polyline class="cls-4" points="68.49 85.13 86.39 87.83 92.48 74.79"/>
        <polyline class="cls-4" points="68.49 85.13 86.39 87.83 92.48 74.79"/>
      </g>
      <g>
        <polyline class="cls-1" points="145.86 87.74 140.29 79.15 127.79 79.15 114.96 79.15 102.47 79.15 97.32 87.74"/>
        <g>
          <polygon class="cls-3" points="96.99 92.12 121.42 121.18 109.21 92.12 96.99 92.12"/>
          <polygon class="cls-3" points="96.99 92.12 105.33 81.37 115.96 81.37 109.21 92.12 96.99 92.12"/>
          <polygon class="cls-3" points="145.86 92.12 137.52 81.37 126.88 81.37 133.64 92.12 145.86 92.12"/>
          <polygon class="cls-3" points="145.86 92.12 121.42 121.18 133.64 92.12 145.86 92.12"/>
          <polygon class="cls-3" points="115.96 81.37 109.21 92.12 133.64 92.12 126.88 81.37 115.96 81.37"/>
          <polygon class="cls-3" points="121.42 121.18 133.64 92.12 109.21 92.12 121.42 121.18"/>
        </g>
      </g>
    </g>
  </g>
</svg>